<?xml version="1.0" standalone="no"?><svg xmlns="http://www.w3.org/2000/svg"><metadata>Created by youziku.com at Fri, 23 Oct 2015 02:03:54 GMT</metadata><defs><font id="minijianxiyuan" horiz-adv-x="256" ><font-face font-family="minijianxiyuan" font-weight="400" font-stretch="normal" font-style="normal" units-per-em="256" panose-1="2 1 6 0 3 1 1 1 1 1" ascent="220" descent="-36" bbox="-9 -63 258.064 227.133" underline-thickness="10" underline-position="-15" unicode-range="U+0020-FFE5"  /><missing-glyph /><glyph glyph-name="" unicode="" /><glyph glyph-name="space" unicode=" "  horiz-adv-x="128" /><glyph glyph-name="uni300C" unicode="&#x300C;" d="M221 198h-78c-7 -1 -10 -4 -10 -10v-209c0 -7 -10 -9 -10 0v213c1 9 6 16 17 16h81c7 0 7 -10 0 -10z" /><glyph glyph-name="uni300D" unicode="&#x300D;" d="M35 -17h78c6 1 10 4 10 10v209c-2 7 10 9 10 0v-213c-1 -10 -6 -16 -16 -16h-82c-8 0 -8 10 0 10z" /><glyph glyph-name="uni3010" unicode="&#x3010;" d="M177 203c-58 -54 -57 -178 2 -227c0 -4 -2 -6 -5 -6c-18 3 -51 -9 -51 12v216c0 22 34 10 53 13c3 -1 3 -3 1 -8z" /><glyph glyph-name="uni3011" unicode="&#x3011;" d="M137 198v-216c0 -20 -33 -9 -52 -12c-6 1 -5 8 0 12c58 53 52 168 -2 221c-3 5 -3 7 1 8c19 -3 52 8 53 -13z" /><glyph glyph-name="uni4E00" unicode="&#x4E00;" d="M13 92h231c8 0 8 -10 0 -10h-231c-9 0 -9 10 0 10z" /><glyph glyph-name="uni4E07" unicode="&#x4E07;" d="M249 181h-159v-52h117c19 1 27 -6 26 -19c-5 -91 1 -120 -52 -139c-27 -1 -50 2 -68 10c-7 3 -3 11 4 9c86 -25 103 -6 105 113c1 11 -4 15 -14 15h-119c-5 -61 -27 -107 -64 -141c-5 -5 -16 0 -9 6c45 37 66 103 63 198h-58c-8 0 -5 10 1 10h227c5 0 8 -11 0 -10z" /><glyph glyph-name="uni4E09" unicode="&#x4E09;" d="M36 96h184c8 0 8 -12 0 -11h-184c-8 -1 -8 11 0 11zM18 -1h221c8 1 7 -11 0 -11h-221c-9 0 -10 12 0 11zM28 191h199c7 0 7 -10 0 -10h-199c-9 0 -9 10 0 10z" /><glyph glyph-name="uni4E0A" unicode="&#x4E0A;" d="M110 203v-66h121c6 0 6 -10 0 -10h-121v-135h133c8 1 7 -11 0 -11h-230c-8 0 -7 12 1 11h85v211c-1 8 11 7 11 0z" /><glyph glyph-name="uni4E0B" unicode="&#x4E0B;" d="M237 188h-111v-43c27 -18 58 -43 94 -72c6 -5 -1 -15 -7 -9c-19 19 -49 41 -87 69v-160c0 -6 -12 -7 -11 0v215h-103c-7 0 -7 10 0 10h225c6 0 6 -10 0 -10z" /><glyph glyph-name="uni4E0D" unicode="&#x4E0D;" d="M238 190h-82c-4 -13 -12 -27 -23 -43v-168c0 -9 -11 -12 -11 -1v156c-30 -37 -66 -63 -109 -79c-7 -3 -10 9 -3 11c67 29 112 71 135 124h-125c-8 0 -8 10 0 10h218c6 0 6 -10 0 -10zM153 136c35 -27 67 -56 95 -85c5 -5 -3 -17 -7 -9c-31 33 -62 61 -94 85
c-7 3 -2 14 6 9z" /><glyph glyph-name="uni4E0E" unicode="&#x4E0E;" d="M31 211c8 12 13 -6 10 -15h199c8 0 8 -10 0 -10h-199v-50c0 -5 2 -7 7 -7h169c28 0 18 -39 19 -64c4 -87 -35 -114 -116 -81c-8 2 -7 15 2 11c93 -44 111 20 103 115c-1 5 -3 9 -8 9h-170c-10 1 -16 6 -16 16v76zM206 54h-196c-7 0 -7 10 0 10h196c7 0 7 -10 0 -10z" /><glyph glyph-name="uni4E13" unicode="&#x4E13;" d="M104 211c17 10 7 -16 3 -24h126c8 0 8 -10 0 -10h-130l-18 -47h157c6 0 6 -10 0 -10h-161l-15 -33c-1 -4 0 -6 5 -6h152c11 -1 15 -6 10 -15c-9 -16 -42 -36 -98 -60c31 -11 53 -20 68 -27c6 -2 2 -13 -3 -11c-65 27 -115 48 -151 61c-8 3 -3 11 4 9c23 -9 47 -18 70 -27
c65 27 98 47 97 60h-152c-30 3 -2 35 1 49h-51c-9 0 -9 10 0 10h55l19 47h-66c-8 0 -8 10 0 10h69z" /><glyph glyph-name="uni4E14" unicode="&#x4E14;" d="M55 196h149c9 -1 16 -6 16 -15v-187c12 0 44 3 28 -11h-237c-18 14 19 11 30 11v187c-1 11 3 15 14 15zM210 130v47c0 6 -3 9 -8 9h-142c-7 0 -9 -3 -9 -9v-47h159zM210 62v58h-159v-58h159zM210 -6v58h-159v-58h159z" /><glyph glyph-name="uni4E16" unicode="&#x4E16;" d="M216 209v-68c12 -1 47 4 32 -10h-32c-5 -32 14 -93 -22 -91c-29 3 -71 -11 -71 23v68h-71v-122c-1 -14 7 -22 22 -22h165c5 0 5 -10 0 -10h-166c-21 0 -31 12 -31 36v118c-12 0 -50 -3 -32 10h32v65c0 6 10 6 10 0v-65h71v65c0 5 10 5 10 0v-65h73v68c3 5 7 5 10 0z
M133 131v-66c0 -28 41 -10 63 -15c6 0 10 4 10 12v69h-73z" /><glyph glyph-name="uni4E18" unicode="&#x4E18;" d="M68 185c-24 0 -9 -39 -13 -59h184c7 0 6 -11 -1 -10h-54v-118h63c7 1 8 -11 1 -11h-236c-16 15 21 11 33 11v171c-1 19 6 26 22 26c59 0 109 3 148 8c6 1 9 -10 2 -11c-35 -4 -84 -6 -149 -7zM173 -2v118h-118v-118h118z" /><glyph glyph-name="uni4E1A" unicode="&#x4E1A;" d="M103 207v-219h55v217c0 7 10 7 10 0v-217h76c7 0 7 -10 0 -10h-235c-7 1 -9 11 1 10h83v220c0 8 10 5 10 -1zM238 180c-6 -55 -20 -110 -43 -166c-2 -7 -13 -3 -9 5c21 51 35 106 43 163c1 7 10 4 9 -2zM29 183c19 -55 29 -109 28 -163c0 -8 -11 -12 -10 -1
c2 48 -8 102 -27 161c-3 7 6 10 9 3z" /><glyph glyph-name="uni4E1C" unicode="&#x4E1C;" d="M90 187h153c7 -1 5 -10 -2 -10h-155c-10 -21 -33 -58 -39 -81c22 -5 55 -1 82 -2v57c-1 8 11 7 11 0v-57h88c6 0 9 -10 1 -10h-89c-1 -54 17 -147 -59 -109c-8 4 -3 13 6 9c67 -31 34 58 42 100h-81c-14 1 -18 8 -12 20s19 36 38 73c-18 2 -45 -5 -55 5c10 11 42 1 59 6
c5 0 6 25 18 25c8 -7 -5 -21 -6 -26zM73 65c4 7 15 1 10 -7c-21 -31 -41 -56 -62 -72c-9 -7 -15 2 -7 9c22 18 41 43 59 70zM190 64c22 -23 40 -45 54 -66c4 -7 -4 -12 -8 -6c-15 20 -32 42 -53 66c-7 5 3 10 7 6z" /><glyph glyph-name="uni4E24" unicode="&#x4E24;" d="M17 199h225c6 0 6 -10 0 -10h-74v-39c27 -3 66 11 66 -21v-135c-1 -23 -18 -29 -50 -16c-9 3 -5 14 4 10c22 -10 35 -7 35 6v135c-3 19 -37 6 -55 10c0 -15 0 -25 -1 -31c18 -23 34 -50 47 -80c5 -9 -6 -15 -10 -5c-12 28 -26 51 -39 70c-4 -31 -15 -59 -32 -84
c-3 -8 -15 -2 -9 5c23 32 34 74 34 125h-61c-1 -9 -1 -17 -2 -25c17 -23 30 -46 39 -68c3 -9 -6 -15 -10 -5c-8 22 -20 41 -32 58c-7 -33 -21 -62 -43 -88c-6 -8 -15 0 -8 7c30 32 44 74 46 121c-17 -3 -49 7 -54 -8v-152c0 -8 -12 -8 -11 0v152c-3 30 40 15 65 19v39h-70
c-7 0 -7 10 0 10zM158 189h-61v-39h61v39z" /><glyph glyph-name="uni4E2A" unicode="&#x4E2A;" d="M130 148v-173c0 -6 -10 -6 -10 0v173c0 7 10 7 10 0zM109 193c19 20 15 17 35 0c31 -27 65 -50 103 -68c7 -3 2 -14 -5 -10c-46 24 -83 50 -117 80c-27 -32 -60 -58 -109 -78c-10 -4 -13 6 -4 10c36 13 68 35 97 66z" /><glyph glyph-name="uni4E2D" unicode="&#x4E2D;" d="M124 207c15 16 11 -21 11 -34h93c8 -1 13 -8 13 -21v-98c1 -11 -5 -14 -19 -14h-87v-70c-3 -5 -7 -6 -11 -1v71h-89c-11 0 -16 7 -16 20v96c-1 12 4 17 17 17h88v34zM30 156v-98c-1 -6 2 -8 11 -8h83v113h-85c-7 0 -9 -2 -9 -7zM135 163v-113h80c11 -1 15 2 15 9v90
c0 10 -3 14 -9 14h-86z" /><glyph glyph-name="uni4E30" unicode="&#x4E30;" d="M129 215c12 -4 3 -29 6 -42h100c5 0 5 -10 0 -10h-100v-60h83c5 0 7 -10 1 -10h-84v-67h102c5 0 5 -10 0 -10h-102c-3 -16 6 -43 -6 -50c-11 8 -2 34 -5 50h-101c-7 0 -7 10 0 10h101v67h-80c-7 -1 -8 10 -1 10h81v60h-99c-7 0 -7 10 0 10h99c2 14 -5 36 5 42z" /><glyph glyph-name="uni4E3A" unicode="&#x4E3A;" d="M118 214c11 -11 -1 -32 -3 -53h100c16 1 22 -6 21 -20c-3 -71 -8 -116 -15 -136c-14 -37 -42 -45 -88 -24c-5 3 -6 6 -5 10c1 3 5 4 10 1c39 -18 64 -14 73 14c10 30 13 76 14 135c0 6 -3 9 -10 9h-102c-19 -77 -49 -135 -88 -174c-6 -6 -14 1 -8 7c41 41 69 97 85 167
h-80c-8 -1 -8 11 0 11h83c3 16 5 32 7 48c0 3 2 5 6 5zM30 209c24 4 41 -20 58 -30c6 -5 -2 -16 -7 -9c-13 11 -29 22 -48 32c-4 2 -5 4 -3 7zM128 96c30 -25 53 -49 70 -70c6 -9 -2 -17 -8 -8c-22 29 -45 52 -69 69c-7 4 1 12 7 9z" /><glyph glyph-name="uni4E3B" unicode="&#x4E3B;" d="M136 167h96c6 0 7 -12 0 -11h-100v-72h91c6 0 7 -12 0 -11h-91v-83h110c6 0 6 -10 0 -10h-225c-7 0 -7 10 0 10h105v83h-84c-8 -1 -7 11 0 11h84v72h-100c-8 -1 -7 11 0 11h103c-4 11 -9 23 -18 34c-6 7 4 12 9 6c9 -11 15 -25 20 -40z" /><glyph glyph-name="uni4E3D" unicode="&#x4E3D;" d="M18 204h225c5 0 6 -12 0 -11h-225c-8 -1 -7 11 0 11zM19 145c-1 30 47 18 73 18c12 0 18 -6 18 -18v-147c-1 -20 -15 -27 -40 -21c-4 2 -6 5 -6 8c1 3 3 4 7 3c18 -4 29 -1 29 10v147c-7 16 -43 4 -63 8c-5 -1 -7 -3 -7 -8v-167c0 -7 -12 -8 -11 0v167zM67 127
c4 -26 6 -77 6 -107c0 -10 -12 -13 -11 0c2 31 -1 66 -5 106c-2 7 10 8 10 1zM137 144c0 31 52 18 80 18c12 0 18 -6 18 -18v-149c-1 -27 -15 -32 -45 -21c-10 4 -7 15 4 10c20 -9 30 -5 30 11v149c0 5 -2 8 -7 8h-62c-5 -1 -8 -3 -8 -8v-167c0 -7 -10 -7 -10 0v167z
M188 126c5 -36 7 -72 6 -107c0 -11 -12 -12 -11 0c0 39 0 69 -5 106c-1 9 10 9 10 1z" /><glyph glyph-name="uni4E3E" unicode="&#x4E3E;" d="M119 212c5 -14 23 -32 16 -49c-4 -1 -6 1 -7 5c-7 17 -13 31 -18 40c-5 5 7 8 9 4zM193 156h48c7 0 6 -11 -1 -10h-61c9 -21 33 -43 70 -66c6 -4 0 -13 -7 -8c-34 24 -59 47 -74 74h-83c-15 -29 -38 -54 -68 -75c-9 -6 -14 4 -6 8c29 19 49 41 62 67h-53c-8 0 -8 10 0 10
h161c13 15 25 32 36 53c2 8 13 2 9 -5c-11 -21 -22 -37 -33 -48zM48 208c8 -16 29 -32 22 -51c-3 -1 -5 1 -6 4c-7 14 -16 28 -25 42c-5 6 5 11 9 5zM132 137c10 -6 3 -29 5 -42h62c7 0 7 -10 0 -10h-62v-48h102c7 0 7 -10 0 -10h-102c-3 -18 6 -47 -5 -57c-3 0 -5 2 -5 6
v51h-102c-8 0 -8 10 0 10h102v48h-70c-8 0 -8 10 0 10h70c2 13 -5 36 5 42z" /><glyph glyph-name="uni4E45" unicode="&#x4E45;" d="M148 193h-79c-11 -48 -27 -81 -47 -99c-7 -8 -14 1 -7 7c23 23 38 59 46 107c1 9 13 5 10 -4h78c14 1 20 -4 18 -16c-4 -31 -9 -59 -16 -86c21 -52 52 -91 94 -118c7 -3 3 -14 -4 -11c-42 26 -74 65 -96 116c-22 -57 -65 -96 -129 -117c-9 -2 -11 9 -3 11
c86 25 133 91 143 200c1 7 -1 10 -8 10z" /><glyph glyph-name="uni4E4B" unicode="&#x4E4B;" d="M58 27c36 -48 100 -38 188 -38c7 0 9 -12 1 -12c-75 -1 -123 2 -145 8c-26 7 -45 23 -59 46c-10 -11 -14 -29 -24 -52c-4 -7 -16 -3 -11 5c6 9 23 57 33 65c6 2 8 -11 13 -12c83 19 139 58 164 117c3 7 -1 12 -8 12h-193c-10 -1 -8 9 -1 10h104c1 7 -13 25 -7 35
c13 -3 11 -21 17 -35h85c13 -1 18 -10 12 -26c-26 -61 -83 -102 -169 -123z" /><glyph glyph-name="uni4E4E" unicode="&#x4E4E;" d="M140 187v-114h104c7 0 8 -12 0 -11h-104v-63c0 -31 -30 -36 -90 -15c-8 2 -1 14 5 10c49 -16 74 -14 74 5v63h-107c-8 -1 -8 11 0 11h107v113c-33 1 -96 -8 -108 2c1 3 4 5 9 6c87 1 152 5 193 12c8 1 10 -12 1 -12c-26 -3 -54 -6 -84 -7zM219 169c4 12 14 5 10 -6
c-10 -28 -24 -54 -43 -78c-7 -10 -16 -1 -8 8c15 17 28 43 41 76zM39 161c-6 8 5 14 9 7c16 -25 30 -50 39 -76c4 -11 -7 -15 -11 -3c-10 30 -24 54 -37 72z" /><glyph glyph-name="uni4E58" unicode="&#x4E58;" d="M119 185c-28 0 -73 -7 -90 3c0 3 2 5 6 6c57 -3 127 1 174 10c9 2 11 -9 3 -10c-19 -3 -46 -7 -83 -9v-24h111c5 0 7 -10 1 -10h-112v-76c29 -33 67 -61 114 -85c5 -3 0 -13 -5 -10c-35 17 -71 43 -109 80v-85c0 -5 -10 -7 -10 -1v83c-22 -31 -56 -57 -102 -76
c-8 -3 -11 8 -3 11c48 18 83 47 105 83v76h-105c-7 0 -7 10 0 10h105v24zM88 138v-92c-12 -21 -11 18 -10 29c-18 -9 -38 -17 -61 -24c-17 2 2 15 10 15c39 21 56 5 51 47h-53c-8 0 -8 10 0 10h53c-2 9 1 27 10 15zM172 144c11 -5 2 -30 5 -43c14 5 29 14 46 29
c5 6 14 -2 9 -7c-11 -10 -29 -21 -55 -34c1 -12 -4 -31 9 -30c26 1 51 -8 45 25c-1 6 11 5 11 0c4 -42 -21 -37 -55 -35c-35 2 -13 60 -19 91c0 3 1 4 4 4z" /><glyph glyph-name="uni4E5D" unicode="&#x4E5D;" d="M217 -15c25 4 20 19 20 59c0 7 11 6 11 0c-4 -47 5 -66 -32 -70c-25 -2 -34 10 -34 35v133c-4 28 -52 10 -78 15c3 -71 -23 -129 -78 -175c-9 -8 -17 1 -8 8c53 40 77 96 75 167h-67c-10 -1 -8 9 -1 10h68c2 15 -5 41 5 48c12 -6 3 -33 6 -48c33 -5 88 14 88 -23v-133
c-2 -19 7 -29 25 -26z" /><glyph glyph-name="uni4E5F" unicode="&#x4E5F;" d="M135 213c11 -13 2 -45 5 -66l79 24c35 9 16 -55 21 -84c-3 -49 -28 -62 -75 -40c-5 2 -7 4 -6 7s4 4 9 3c70 -37 64 33 62 91c0 11 -3 14 -11 12l-79 -24v-113c0 -9 -10 -11 -10 -1v110l-77 -24c5 -47 -18 -119 36 -119h120c21 0 32 14 31 42c-1 8 11 8 11 0
c10 -80 -98 -46 -162 -52c-61 -6 -44 71 -46 126l-26 -8c-15 13 18 14 26 19v73c0 7 10 7 10 0v-70l77 24v64c0 3 2 5 5 6z" /><glyph glyph-name="uni4E86" unicode="&#x4E86;" d="M219 187c-60 5 -129 1 -193 2c-7 0 -7 10 0 10h192c15 0 21 -10 10 -19c-22 -16 -74 -48 -96 -63c-6 -3 -6 -7 -1 -12c40 -37 42 -132 -18 -132c-19 0 -37 6 -55 18c-6 4 -3 15 6 9c44 -29 96 -16 84 48c-4 20 -14 37 -28 52c-7 8 -5 16 4 24c18 14 66 42 95 63z" /><glyph glyph-name="uni4E8C" unicode="&#x4E8C;" d="M15 -3h225c8 1 8 -11 0 -11h-225c-8 0 -8 12 0 11zM26 194h200c8 0 8 -10 0 -10h-200c-8 0 -8 10 0 10z" /><glyph glyph-name="uni4E8E" unicode="&#x4E8E;" d="M29 204h199c6 0 6 -10 0 -10h-88v-91h103c5 0 5 -10 0 -10h-103v-96c3 -29 -23 -32 -80 -13c-7 2 -4 13 3 10c50 -19 72 -17 66 6v93h-116c-7 0 -7 10 0 10h116v91h-101c-8 0 -5 10 1 10z" /><glyph glyph-name="uni4E94" unicode="&#x4E94;" d="M25 199h205c7 0 6 -11 -1 -10h-112l-11 -71h89c12 -1 19 -8 19 -23v-105c11 0 46 4 30 -10h-225c-8 0 -8 10 0 10h58l18 118h-64c-9 0 -7 10 1 10h64l11 71h-82c-8 0 -8 10 0 10zM105 108l-18 -118h116v101c1 12 -4 17 -15 17h-83z" /><glyph glyph-name="uni4EA6" unicode="&#x4EA6;" d="M136 187h103c5 0 8 -11 1 -11h-75v-183c1 -21 -19 -27 -58 -17c-7 1 -5 12 3 10c30 -9 44 -5 44 8v182h-48c-1 -50 4 -134 -10 -164c-7 -16 -19 -29 -37 -40c-6 -3 -11 6 -6 9c39 26 42 43 42 110v85h-78c-8 0 -5 11 1 11h107c1 6 -13 17 -7 25c12 1 12 -13 18 -25z
M201 145c15 -41 30 -93 43 -156c1 -7 -10 -8 -11 -1c-11 60 -25 111 -42 153c-3 6 8 9 10 4zM62 141c-7 -67 -21 -117 -42 -150c-4 -6 -13 -1 -9 5c22 36 41 85 41 146c0 9 11 7 10 -1z" /><glyph glyph-name="uni4EA7" unicode="&#x4EA7;" d="M122 207c5 16 16 -7 16 -16h106c17 -14 -22 -9 -33 -10c-6 -19 -13 -36 -21 -52h56c7 0 7 -12 -1 -11h-187c-9 -1 -13 -4 -13 -9c1 -62 -9 -106 -28 -134c-4 -6 -16 -3 -9 5c18 21 28 65 28 133c0 22 29 15 49 16c-9 19 -18 36 -29 52c-12 0 -50 -4 -32 10h103
c-1 5 -3 11 -5 16zM97 129h80c9 14 16 31 22 52h-129c10 -17 19 -35 27 -52z" /><glyph glyph-name="uni4EAC" unicode="&#x4EAC;" d="M126 190c-2 10 -12 16 -5 22c10 -1 11 -11 15 -22h109c6 0 6 -10 0 -10h-227c-8 0 -8 10 0 10h108zM55 154h150c31 1 18 -42 21 -70c-5 -29 -59 -11 -88 -16c-6 -53 25 -125 -58 -87c-6 3 -2 15 6 11c68 -33 34 39 42 76h-74c-30 0 -18 44 -18 70c0 10 6 16 19 16z
M56 144c-19 -3 -6 -36 -10 -54c-1 -8 3 -12 10 -12h149c20 2 7 37 11 56c-1 5 -5 9 -10 10h-150zM74 50c3 6 15 0 10 -6c-16 -24 -37 -46 -64 -67c-7 -5 -13 3 -7 8c26 20 46 42 61 65zM186 51c19 -17 39 -40 60 -68c4 -5 -8 -11 -10 -5c-16 21 -35 43 -57 65c-8 4 1 13 7 8
z" /><glyph glyph-name="uni4EAD" unicode="&#x4EAD;" d="M67 -11c29 -8 62 -19 62 11v49h-86c-8 0 -7 9 0 9h162c6 0 7 -9 0 -9h-65c-2 -31 8 -71 -19 -78c-15 -4 -33 0 -57 9c-7 2 -5 13 3 9zM130 192h102c5 0 6 -9 0 -9h-214c-8 0 -5 9 1 9h101c-1 6 -11 13 -5 19c10 1 10 -11 15 -19zM56 162h138c20 5 24 -49 1 -49h-139
c-19 -4 -22 49 0 49zM60 153c-13 2 -11 -26 -2 -30h134c10 -3 12 30 -1 30h-131zM30 96h191c29 -1 24 -34 15 -57c-25 -11 19 48 -21 48h-182c-21 0 -10 -27 -13 -44c-16 -12 -9 27 -10 38c-1 10 6 15 20 15z" /><glyph glyph-name="uni4EBA" unicode="&#x4EBA;" d="M120 210c11 13 10 -12 10 -22c0 -76 62 -171 117 -203c8 -5 3 -19 -7 -10c-58 43 -95 98 -112 165c-15 -75 -52 -130 -112 -166c-8 -5 -14 7 -5 10c76 52 113 115 109 226z" /><glyph glyph-name="uni4EC5" unicode="&#x4EC5;" d="M50 140v-164c0 -6 -12 -7 -11 0v140c-10 -18 -12 -40 -30 -41c-3 3 -2 6 1 11c22 31 36 72 43 121c1 9 12 6 11 -2c-3 -23 -8 -44 -14 -65zM85 201h130c21 0 27 -8 22 -24c-16 -53 -38 -99 -67 -136c19 -23 43 -43 74 -57c8 -4 5 -16 -4 -12c-31 16 -57 36 -78 59
c-25 -25 -55 -46 -89 -61c-10 -4 -13 7 -5 10c34 15 63 36 86 61c-29 35 -50 76 -66 121c-4 11 8 14 11 5c14 -47 35 -86 63 -117c28 38 50 80 63 127c2 8 -2 13 -10 13h-130c-8 -1 -7 11 0 11z" /><glyph glyph-name="uni4ECA" unicode="&#x4ECA;" d="M19 86h201c15 -2 20 -11 14 -27c-23 -59 -84 -88 -182 -86c-6 0 -7 12 0 11c91 -3 148 22 172 77c4 10 0 15 -11 15h-194c-7 0 -7 10 0 10zM138 207c29 -33 64 -57 107 -71c8 -2 6 -14 -3 -11c-48 18 -84 43 -109 74c-3 3 -7 3 -10 -1c-21 -28 -54 -53 -103 -74
c-10 -5 -14 7 -4 10c45 16 79 41 102 73c6 8 13 8 20 0zM72 139c36 -4 74 -13 115 -28c4 -2 6 -5 5 -8s-3 -3 -7 -2c-35 13 -72 27 -114 27c-9 0 -6 11 1 11z" /><glyph glyph-name="uni4ECE" unicode="&#x4ECE;" d="M196 209c-4 -100 10 -154 57 -227c5 -7 -5 -16 -10 -8c-28 43 -45 85 -51 126c-5 -54 -30 -97 -73 -129c-8 -6 -16 2 -7 8c65 47 79 123 73 230c-1 8 11 7 11 0zM76 208c0 -39 -1 -68 -2 -86c32 -35 56 -66 71 -93c5 -7 -5 -16 -10 -7c-17 33 -40 61 -63 86
c-7 -49 -26 -92 -57 -129c-6 -6 -16 -1 -9 7c43 50 63 124 59 222c-1 6 11 6 11 0z" /><glyph glyph-name="uni4ED5" unicode="&#x4ED5;" d="M152 207v-67h88c6 0 7 -12 0 -11h-88v-137h78c6 1 7 -11 1 -11h-162c-7 0 -10 11 -1 11h74v137h-80c-8 -1 -7 11 0 11h80v67c0 7 10 7 10 0zM51 205c-19 -64 -10 -147 -12 -227c0 -7 -10 -7 -10 0v140c-5 -12 -13 -27 -18 -33c-5 -3 -7 0 -8 7c20 29 33 67 38 116
c0 8 12 2 10 -3z" /><glyph glyph-name="uni4EE3" unicode="&#x4EE3;" d="M218 -29c-48 14 -70 103 -76 161l-72 -4c-10 -1 -8 11 -1 11l72 3c-3 22 -4 45 -2 70c0 5 10 3 10 -1c0 -25 1 -48 3 -68l82 4c6 0 9 -10 1 -10l-82 -4c1 -49 26 -132 63 -151c6 3 11 18 15 46c-1 8 11 5 10 -1c-4 -37 -12 -55 -23 -56zM182 211c19 -17 33 -31 42 -44
c4 -7 -4 -12 -8 -6c-11 14 -25 28 -41 43c-7 4 1 10 7 7zM52 143v-161c0 -6 -11 -9 -11 -1v142c-5 -14 -14 -30 -26 -49c-4 -6 -13 -2 -8 6c21 31 38 74 51 127c0 8 14 6 11 -2c-2 -8 -8 -29 -17 -62z" /><glyph glyph-name="uni4EE5" unicode="&#x4EE5;" d="M38 203v-184c-1 -6 2 -8 8 -6c42 13 75 30 100 51c7 6 12 -5 7 -9c-27 -20 -60 -38 -100 -51c-19 -7 -26 0 -26 19v181c0 8 11 5 11 -1zM221 202c0 -73 -7 -124 -21 -152c19 -22 37 -45 53 -70c5 -7 -6 -15 -9 -6c-18 28 -35 50 -50 67c-27 -36 -70 -59 -131 -69
c-9 -1 -11 9 -2 11c126 28 150 64 149 219c-1 8 11 7 11 0zM83 200c26 -31 48 -61 65 -90c5 -9 -7 -17 -10 -6c-23 38 -44 67 -63 88c-7 5 3 14 8 8z" /><glyph glyph-name="uni4EEC" unicode="&#x4EEC;" d="M91 214c19 -13 35 -27 48 -42c5 -4 -4 -14 -8 -7c-10 11 -26 25 -47 42c-5 3 3 10 7 7zM32 102c-7 -10 -11 -31 -25 -33c-3 1 -3 4 -1 8c21 35 35 78 42 127c-1 8 11 5 10 -1c-5 -30 -10 -55 -16 -75v-152c0 -7 -10 -7 -10 0v126zM145 201h78c11 -1 17 -6 17 -17v-181
c-4 -43 -16 -33 -65 -26c-21 22 52 -1 46 6c5 1 8 8 8 21v181c0 4 -2 6 -6 6h-77c-10 -1 -8 9 -1 10zM85 169v-192c0 -7 -12 -8 -11 0v193c0 7 11 4 11 -1z" /><glyph glyph-name="uni4EF2" unicode="&#x4EF2;" d="M162 209v-41c31 -4 79 13 79 -24v-89c-2 -30 -51 -14 -79 -18v-64c0 -6 -12 -7 -11 0v64c-28 3 -79 -11 -79 19v92c-2 33 51 16 79 20c2 14 -7 54 11 41zM219 157h-57v-110h58c7 -1 11 3 11 11v87c0 8 -4 12 -12 12zM151 157h-56c-9 0 -13 -3 -13 -10v-85
c-2 -28 45 -10 69 -15v110zM55 204c-13 -60 -8 -152 -9 -226c0 -6 -12 -7 -11 0v141c-7 -11 -12 -35 -27 -36c-2 2 -2 5 0 8c19 27 36 64 36 114c0 9 13 7 11 -1z" /><glyph glyph-name="uni4EF6" unicode="&#x4EF6;" d="M109 158h54c3 18 -6 46 5 56c11 -10 2 -38 5 -56h69c6 0 6 -10 0 -10h-69v-81h76c6 0 7 -12 0 -11h-76v-84c0 -6 -10 -6 -10 0v84h-93c-8 -1 -8 11 0 11h93v81h-58c-8 -21 -19 -38 -33 -52c-6 -5 -12 4 -7 9c23 22 35 54 40 95c-1 8 12 7 11 0c-1 -12 -4 -26 -7 -42z
M53 210c15 -3 -6 -47 -6 -66v-167c0 -7 -10 -7 -10 0v148c-6 -17 -13 -30 -20 -41c-4 -5 -15 1 -9 8c22 31 35 69 39 114c0 3 2 4 6 4z" /><glyph glyph-name="uni4EF7" unicode="&#x4EF7;" d="M49 202c-12 -61 -7 -152 -8 -226c0 -5 -10 -7 -10 -1v139c-8 -14 -7 -33 -22 -37c-3 2 -3 5 -1 8c19 35 29 75 31 118c0 8 11 5 10 -1zM119 136c-2 -98 1 -118 -44 -162c-7 -6 -17 4 -8 8c42 38 40 63 42 154c0 7 10 7 10 0zM202 136v-159c0 -6 -10 -6 -10 0v158
c-1 5 10 5 10 1zM124 180c40 36 28 41 63 2c25 -30 46 -50 63 -59c5 -3 3 -15 -4 -10c-21 7 -62 54 -86 82c-23 -16 -76 -72 -94 -80c-9 -7 -12 6 -6 9c15 10 36 30 64 56z" /><glyph glyph-name="uni4F0F" unicode="&#x4F0F;" d="M151 206v-66h93c6 0 6 -10 0 -10h-91c14 -66 44 -117 93 -149c8 -5 2 -15 -7 -9c-47 34 -77 81 -92 142c-9 -60 -36 -106 -81 -139c-7 -6 -14 3 -7 8c45 30 72 80 81 147h-78c-7 -1 -8 10 -1 10h80v65c-1 7 10 8 10 1zM33 115c-9 -15 -11 -39 -24 -36c-3 2 -3 5 -1 9
c22 37 35 76 35 117c0 9 12 6 11 -1c-17 -74 -9 -141 -11 -226c0 -7 -10 -7 -10 0v137zM183 207c17 -13 34 -28 53 -46c6 -6 -4 -16 -8 -9c-19 19 -36 34 -51 45c-6 3 0 13 6 10z" /><glyph glyph-name="uni4F1A" unicode="&#x4F1A;" d="M95 195c39 31 26 30 66 -1c35 -27 61 -46 80 -53c5 -2 8 -5 7 -10c-1 -4 -5 -5 -10 -2c-30 13 -75 48 -110 76c-33 -22 -91 -70 -112 -76c-9 -5 -13 9 -4 11c22 9 49 28 83 55zM56 139h144c8 0 8 -10 1 -10h-145c-8 0 -8 10 0 10zM20 83h220c8 -1 6 -10 -2 -10h-131
c-16 -33 -36 -62 -59 -88c59 2 112 6 159 12c-15 21 -28 38 -39 52c-6 7 4 13 9 7c19 -23 37 -50 54 -80c2 -23 -18 5 -18 11c-51 -6 -108 -13 -172 -13c-12 0 -15 6 -7 13c25 24 46 53 62 86h-76c-8 0 -8 10 0 10z" /><glyph glyph-name="uni4F20" unicode="&#x4F20;" d="M160 17c26 19 50 30 64 51c-34 7 -80 3 -119 3c-27 0 -6 30 -4 43h-40c-7 0 -7 10 0 10h44l13 44h-43c-8 0 -5 10 1 10h45c5 10 3 30 14 34c10 -7 -3 -23 -3 -34h103c7 0 7 -10 0 -10h-106l-13 -44h133c5 0 5 -10 0 -10h-137l-7 -23c-2 -7 -1 -10 4 -10h115
c12 -1 20 -8 11 -19c-11 -13 -33 -30 -65 -51c20 -12 36 -22 47 -31c5 -4 0 -15 -7 -9c-37 27 -75 51 -116 68c-9 4 -5 14 4 11c23 -11 43 -22 62 -33zM57 204c-18 -63 -12 -150 -13 -230c0 -6 -10 -6 -10 0v143c-13 -22 -11 -33 -26 -35c-2 2 -2 5 1 9c20 32 33 70 38 115
c1 10 12 5 10 -2z" /><glyph glyph-name="uni4F3D" unicode="&#x4F3D;" d="M87 206c15 14 11 -18 11 -29c25 -1 52 8 52 -23v-99c1 -72 -21 -94 -66 -69c-6 4 -1 14 6 8c66 -49 49 102 49 163c0 16 -26 8 -41 10c-1 -77 -13 -139 -35 -186c-4 -7 -16 -3 -9 6c20 43 31 102 33 179c-13 -2 -47 0 -25 11h25v29zM55 201c-13 -57 -12 -148 -11 -221
c0 -7 -10 -7 -10 0v120c-9 -17 -8 -31 -20 -33c-3 2 -3 5 -2 8c17 29 28 71 33 126c0 5 10 5 10 0zM169 177c1 24 38 12 60 15c7 -1 12 -5 12 -14v-179c2 -27 -33 -17 -56 -19c-11 0 -16 6 -16 18v179zM179 175v-176c1 -14 31 -6 45 -8c5 0 7 2 7 6v178c-5 12 -31 3 -46 6
c-4 -1 -6 -3 -6 -6z" /><glyph glyph-name="uni4F4D" unicode="&#x4F4D;" d="M56 205c-15 -69 -9 -145 -10 -226c0 -7 -12 -8 -11 0v139c-11 -21 -11 -37 -27 -39c-3 1 -3 4 -1 8c24 36 38 76 38 119c0 9 12 6 11 -1zM147 177c-2 15 -16 23 -9 33c14 -2 12 -15 20 -33h82c6 0 6 -10 0 -10h-170c-7 0 -7 10 0 10h77zM85 134c-3 7 6 10 9 3
c13 -35 22 -77 27 -125c1 -11 -11 -11 -10 0c-6 46 -15 87 -26 122zM188 -13h58c6 1 6 -10 1 -10h-183c-8 0 -8 10 0 10h111c18 48 30 97 35 148c0 6 13 8 12 -1c-6 -47 -17 -96 -34 -147z" /><glyph glyph-name="uni4F4E" unicode="&#x4F4E;" d="M144 15c17 1 20 -19 34 -29c5 -5 -6 -13 -9 -7c-7 12 -16 22 -25 29c-3 2 -3 4 0 7zM53 206c-12 -54 -9 -156 -9 -227c0 -6 -12 -7 -11 0v142c-8 -15 -11 -36 -26 -39c-2 3 -2 6 0 9c21 35 32 74 35 115c-1 8 12 8 11 0zM240 203c-1 -14 -46 -8 -63 -11
c-1 -19 -2 -43 1 -61h69c6 0 9 -10 1 -10h-69c5 -57 18 -101 41 -130c17 -13 22 26 24 40c-1 8 11 5 10 -1c-8 -38 -12 -71 -42 -46c-23 33 -38 79 -43 137h-84c-1 -44 1 -90 -1 -132c23 7 43 26 62 45c6 6 14 -2 8 -8c-26 -21 -45 -44 -77 -50c-3 1 -3 4 -3 9v197
c0 12 6 19 19 19c59 0 107 2 142 7c3 0 4 -2 5 -5zM85 183v-52h83c-1 17 -3 42 -1 61c-13 -1 -38 -1 -75 -1c-5 0 -7 -3 -7 -8z" /><glyph glyph-name="uni4F4F" unicode="&#x4F4F;" d="M163 170h75c6 0 7 -12 0 -11h-79v-70h73c6 0 7 -12 0 -11h-73v-89h85c5 0 5 -10 0 -10h-174c-7 0 -7 10 0 10h78v89h-70c-8 -1 -7 11 0 11h70v70h-78c-7 -1 -6 11 0 11h82c-1 10 -14 23 -10 35c14 -1 15 -24 21 -35zM39 117c-3 -10 -11 -29 -19 -47c-2 -6 -14 -2 -9 5
c19 41 38 84 38 130c0 8 13 5 11 -2c-16 -63 -8 -153 -10 -231c0 -7 -12 -8 -11 0v145z" /><glyph glyph-name="uni4F51" unicode="&#x4F51;" d="M128 180c3 9 -1 44 14 28c0 -9 -1 -18 -2 -28h104c6 0 6 -10 0 -10h-106c-7 -27 -16 -48 -26 -64h107c12 1 17 -6 17 -19v-91c0 -13 -6 -19 -18 -19h-107c-15 -1 -20 6 -20 21v81c-12 -12 -22 -30 -38 -27c-2 3 -2 5 1 8c36 25 60 62 73 110h-58c-7 0 -7 10 0 10h59z
M102 86v-87c-1 -7 3 -11 10 -11h105c5 0 8 3 8 8v88c1 8 -3 12 -11 12h-98c-10 0 -14 -3 -14 -10zM58 206c-1 -17 -6 -42 -12 -67v-165c0 -6 -10 -6 -10 0v135c-7 -15 -7 -36 -22 -40c-3 1 -3 4 -2 7c19 45 31 88 36 131c-1 8 11 5 10 -1z" /><glyph glyph-name="uni4F53" unicode="&#x4F53;" d="M52 139v-161c0 -6 -10 -6 -10 0v141c-7 -15 -17 -31 -27 -48c-4 -7 -13 0 -8 6c22 33 39 75 52 126c0 8 14 6 11 -2c-7 -24 -13 -45 -18 -62zM156 213c12 -4 3 -29 6 -42h79c5 0 5 -10 0 -10h-75c22 -50 51 -102 87 -155c3 -4 -5 -9 -9 -6c-34 50 -61 100 -82 150v-122
h44c5 0 5 -10 0 -10h-44v-46c0 -5 -12 -6 -11 0v46h-47c-7 0 -7 10 0 10h47v122c-18 -47 -47 -95 -88 -144c-4 -6 -13 -2 -8 6c44 52 74 102 90 149h-68c-8 0 -5 10 1 10h73v38c0 3 2 4 5 4z" /><glyph glyph-name="uni4F5C" unicode="&#x4F5C;" d="M117 186h123c7 0 8 -11 1 -11h-90v-63h80c8 0 10 -10 1 -10h-81v-65h91c6 0 7 -12 0 -11h-91c-3 -18 6 -48 -6 -56c-3 0 -5 2 -5 5v200h-25c-7 -26 -17 -52 -31 -77c-4 -7 -14 -2 -10 5c19 29 31 65 36 108c14 11 10 -9 7 -25zM50 137v-159c0 -6 -10 -6 -10 0v137
c-7 -15 -14 -28 -23 -39c-6 -9 -13 -1 -7 7c26 41 46 81 46 122c0 8 11 5 11 -1c-3 -19 -8 -42 -17 -67z" /><glyph glyph-name="uni4F73" unicode="&#x4F73;" d="M148 211c14 13 9 -20 10 -31h73c6 0 6 -10 0 -10h-73v-57h81c7 0 8 -12 0 -11h-168c-7 -1 -6 11 0 11h77v57h-72c-9 -1 -9 9 -1 10h73v31zM46 213c15 -11 -2 -40 -2 -59v-176c0 -6 -12 -7 -11 0v141c-4 -13 -10 -26 -18 -39c-4 -9 -13 -2 -8 6c19 33 31 74 34 121
c0 3 2 5 5 6zM149 91c14 13 9 -20 10 -31h73c6 0 6 -10 0 -10h-73v-62h81c7 0 7 -10 0 -10h-173c-6 0 -8 11 0 10h82v62h-75c-9 -1 -9 9 -1 10h76v31z" /><glyph glyph-name="uni4F9B" unicode="&#x4F9B;" d="M202 209v-51c13 -2 38 5 43 -5c0 -3 -1 -5 -4 -5h-39v-75c15 -2 41 5 48 -5c-1 -3 -3 -5 -6 -5h-180c-8 0 -8 10 0 10h43v75h-40c-7 0 -7 10 0 10h40v50c0 6 10 6 10 0v-50h75v51c0 5 10 5 10 0zM44 138v-161c0 -7 -10 -7 -10 0v134c-7 -8 -12 -31 -24 -30
c-3 3 -2 6 1 11c21 32 32 71 35 116c1 7 11 6 11 -1c-2 -24 -6 -47 -13 -69zM117 148v-75h75v75h-75zM124 45c-17 -29 -36 -52 -57 -70c-5 -3 -13 5 -6 9c19 17 37 39 53 66c2 6 14 0 10 -5zM191 51c23 -24 41 -48 56 -69c4 -6 -6 -13 -10 -7c-18 27 -36 49 -54 67
c-8 5 1 14 8 9z" /><glyph glyph-name="uni4F9D" unicode="&#x4F9D;" d="M162 180h83c7 0 7 -10 0 -10h-91c1 -32 9 -62 23 -90c19 13 38 33 55 58c5 8 15 0 10 -7c-16 -23 -36 -43 -60 -62c16 -33 39 -61 68 -86c8 -6 0 -15 -7 -8c-58 55 -91 115 -98 180c-9 -17 -22 -36 -39 -57v-115c-1 -3 1 -4 4 -3c21 9 42 19 59 32c6 5 13 -5 7 -8
c-26 -17 -48 -30 -67 -35c-10 -3 -13 1 -13 10v108c-9 -9 -19 -20 -32 -31c-6 -6 -15 2 -8 8c39 31 67 66 84 106h-72c-9 -1 -9 9 -1 10h84c1 7 -14 23 -6 31c11 0 14 -23 17 -31zM34 104c-4 -4 -9 -34 -23 -38c-3 1 -3 4 -1 8c18 35 30 78 36 130c-1 9 12 9 10 0
c-15 -64 -10 -152 -11 -231c0 -7 -12 -8 -11 0v131z" /><glyph glyph-name="uni4FDD" unicode="&#x4FDD;" d="M99 205h114c29 -1 19 -44 19 -71c0 -31 -48 -15 -75 -19v-26h89c5 0 7 -10 1 -10h-88c24 -35 54 -62 90 -80c7 -3 4 -14 -4 -10c-37 17 -67 43 -88 77v-92c0 -6 -12 -7 -11 0v92c-18 -33 -45 -57 -81 -73c-6 -4 -12 8 -3 8c35 18 62 44 81 78h-78c-8 0 -8 10 0 10h81v26
c-26 3 -74 -11 -71 18c4 30 -15 72 24 72zM99 195c-23 0 -9 -35 -13 -54c-1 -12 3 -17 12 -15h113c20 0 7 37 11 55c-1 9 -5 14 -13 14h-110zM57 203c-17 -74 -9 -143 -11 -228c0 -7 -12 -8 -11 0v139c-8 -12 -11 -33 -26 -33c-2 2 -2 5 1 8c21 30 36 68 36 115
c0 9 12 6 11 -1z" /><glyph glyph-name="uni4FE1" unicode="&#x4FE1;" d="M33 115c-8 -10 -12 -33 -24 -35c-3 2 -3 5 -2 8c21 37 33 76 38 117c-1 7 11 7 10 0c-2 -19 -6 -41 -12 -66v-163c0 -6 -10 -6 -10 0v139zM123 211c17 -2 22 -20 36 -32c5 -8 -4 -13 -8 -6c-9 16 -27 22 -28 38zM239 157h-176c-7 0 -7 10 0 10h176c6 0 6 -10 0 -10z
M88 53h128c27 2 18 -35 18 -58c0 -13 -6 -19 -17 -19h-131c-27 -2 -17 35 -17 58c0 12 6 19 19 19zM80 129h144c6 0 6 -10 0 -10h-145c-9 0 -7 10 1 10zM80 92h145c5 0 5 -10 0 -10h-145c-7 0 -7 10 0 10zM224 -8c-2 16 5 43 -5 51h-134c-4 -1 -6 -2 -6 -5v-46
c-1 -4 2 -6 7 -6h132c4 0 6 2 6 6z" /><glyph glyph-name="uni5029" unicode="&#x5029;" d="M57 206c1 -5 -7 -43 -13 -70v-161c-3 -5 -7 -5 -10 0v136c-8 -10 -10 -31 -25 -32c-2 3 -2 5 -1 8c19 31 32 71 39 120c3 5 7 4 10 -1zM150 209c7 13 13 -5 10 -15h79c6 0 6 -10 0 -10h-79v-22h69c6 0 6 -10 0 -10h-69v-22h87c5 0 5 -10 0 -10h-183c-5 3 -5 7 0 10h86v22
h-66c-7 0 -7 10 0 10h66v22h-77c-7 0 -7 10 0 10h77v15zM95 96h123c10 0 15 -5 15 -15c0 -52 30 -138 -54 -102c-8 1 -3 15 3 11c29 -9 41 -9 41 0v29h-132c-2 -16 5 -43 -5 -51c-3 1 -5 3 -5 6v108c-1 10 3 14 14 14zM99 86c-13 1 -6 -13 -8 -23h132c-1 10 4 24 -8 23h-116
zM91 52v-23h132v23h-132z" /><glyph glyph-name="uni503C" unicode="&#x503C;" d="M59 204c-17 -62 -11 -150 -12 -229c0 -6 -10 -6 -10 0v142c-5 -9 -11 -34 -27 -37c-2 2 -2 5 0 8c19 29 32 68 38 117c-1 8 13 7 11 -1zM146 208c8 16 13 -8 10 -19h77c5 0 5 -10 0 -10h-77v-25c23 -4 62 12 62 -17v-152c11 -1 44 5 31 -10h-193c-8 1 -8 11 1 10h30v157
c0 21 40 9 59 12v25h-75c-7 0 -7 10 0 10h75v19zM109 145c-18 2 -10 -19 -12 -33h111c-2 12 5 33 -9 33h-90zM97 102v-33h111v33h-111zM97 59v-33h111v33h-111zM208 17h-111v-32h111v32z" /><glyph glyph-name="uni505C" unicode="&#x505C;" d="M149 191c0 7 -11 13 -5 20c10 0 12 -10 16 -20h76c5 0 6 -12 0 -11h-163c-8 -1 -7 11 0 11h76zM99 162h115c20 3 12 -27 14 -45c1 -11 -4 -14 -13 -14h-117c-22 -3 -13 26 -15 45c-1 9 5 14 16 14zM102 152c-15 1 -9 -20 -9 -32c0 -5 2 -7 7 -7h111c12 -1 5 21 7 32
c0 5 -2 7 -7 7h-109zM227 73h-142c-18 1 1 -30 -13 -37c-7 7 -14 48 10 48h145c29 1 23 -34 14 -49c-27 -13 15 38 -14 38zM92 40h129c6 0 6 -10 0 -10h-47c5 -55 -2 -74 -71 -53c-5 4 -4 7 2 10c39 -12 58 -11 58 4v39h-72c-8 0 -5 10 1 10zM54 204
c-14 -69 -8 -151 -9 -232c0 -7 -10 -7 -10 0v145c-10 -15 -13 -40 -26 -41c-3 2 -3 5 -2 8c21 35 33 76 36 121c0 8 11 5 11 -1z" /><glyph glyph-name="uni5065" unicode="&#x5065;" d="M41 212c11 -11 -1 -48 -2 -62v-176c0 -7 -10 -7 -10 0v144c-6 -14 -6 -36 -20 -40c-3 2 -3 5 -2 9c18 41 27 80 28 119c0 4 2 6 6 6zM170 206c5 16 13 -3 10 -14c31 -2 68 12 58 -36c11 4 23 -7 10 -10h-10c0 -18 3 -40 -15 -40h-43v-28c18 -3 47 6 57 -5
c0 -3 -2 -5 -5 -5h-52v-29c21 -3 52 6 65 -5c0 -3 -2 -5 -5 -5h-60c0 -11 4 -40 -10 -27v27h-51c-8 0 -8 10 0 10h51v29h-46c-8 0 -8 10 0 10h46v28c-18 3 -47 -6 -57 5c10 11 39 2 57 5v30h-60c-7 0 -7 10 0 10h60v26c-16 2 -42 -5 -50 5c8 10 34 3 50 5v14zM93 16
c38 -32 68 -30 154 -30c8 0 7 -11 1 -11c-82 -1 -123 -1 -161 31c-8 -11 -17 -21 -26 -31c-5 -6 -16 3 -9 8c9 9 18 20 27 32c-11 17 -19 39 -22 65c-2 7 11 8 11 1c1 -17 7 -36 17 -55c7 19 11 38 13 58c10 31 -58 -3 -40 33c10 21 30 52 39 67c3 17 -36 -2 -42 12
c8 9 66 10 53 -14c-26 -47 -42 -71 -43 -74c22 0 49 6 45 -21c-4 -29 -9 -52 -17 -71zM227 156c-1 12 4 26 -10 26h-37v-26h47zM220 116c10 0 6 20 7 30h-47v-30h40z" /><glyph glyph-name="uni5145" unicode="&#x5145;" d="M119 185c1 9 -12 20 -5 27c12 1 12 -20 15 -27h100c7 0 7 -10 0 -10h-113c-28 -33 -54 -57 -78 -73c58 1 115 1 168 4c-11 15 -24 32 -41 48c-7 7 1 15 8 8c17 -17 38 -45 63 -82c5 -6 -6 -13 -9 -7c-1 1 -6 8 -15 23c-39 -1 -58 -2 -58 -1c8 -47 -27 -127 49 -113
c21 -2 30 12 28 43c-1 8 11 6 11 1c4 -52 -20 -57 -66 -54c-51 3 -26 75 -32 122c-11 -1 -28 -1 -49 -1c1 -64 -25 -105 -76 -122c-8 -2 -14 9 -4 11c46 15 69 52 69 111c-10 2 -77 -10 -56 13c27 18 53 41 76 69h-85c-8 0 -8 10 0 10h100z" /><glyph glyph-name="uni5149" unicode="&#x5149;" d="M133 203v-97h28c23 32 41 61 50 87c2 7 13 4 11 -3c-15 -33 -31 -61 -48 -84h66c5 0 5 -10 0 -10h-78c9 -47 -29 -124 48 -110c19 -3 28 11 26 42c0 9 10 7 10 -1c1 -48 -14 -55 -55 -51c-65 -7 -32 70 -40 120h-50c1 -64 -26 -104 -79 -121c-9 -2 -14 8 -4 10
c49 14 73 51 72 111h-73c-7 0 -7 10 0 10h105v97c-1 6 11 6 11 0zM46 193c14 -20 27 -42 37 -67c3 -8 -6 -16 -9 -6c-10 25 -22 47 -37 67c-5 5 5 11 9 6z" /><glyph glyph-name="uni514D" unicode="&#x514D;" d="M64 66c-28 -2 -19 34 -19 57c0 32 56 13 85 18c11 11 32 29 41 49c-22 4 -54 1 -79 2c-13 -26 -35 -47 -66 -64c-8 -5 -14 5 -6 9c32 15 55 38 70 73c4 8 15 -3 7 -8c27 -3 68 7 84 -7c1 -25 -30 -43 -37 -54c28 -5 81 14 81 -18c0 -24 10 -57 -19 -57h-80
c-19 -41 -56 -71 -109 -92c-9 -4 -15 8 -4 11c47 14 81 43 102 81h-51zM126 132h-60c-20 0 -8 -30 -11 -47c-1 -7 3 -10 10 -10h54c3 14 6 33 7 57zM206 75c16 0 9 31 9 46c0 7 -3 11 -10 11h-68c-1 -19 -4 -38 -8 -57h77zM172 -28c-43 -2 -29 44 -31 81c-1 6 10 6 10 1
c4 -28 -13 -74 21 -72s78 -14 68 38c9 14 11 -11 9 -19c3 -39 -43 -27 -77 -29z" /><glyph glyph-name="uni5165" unicode="&#x5165;" d="M66 206c47 0 77 -11 82 -35c18 -78 50 -141 103 -186c6 -4 -2 -17 -9 -10c-55 53 -90 117 -105 191c-22 -87 -61 -149 -116 -190c-8 -6 -16 3 -8 8c54 39 92 104 115 196c-8 9 -29 14 -62 16c-7 0 -7 10 0 10z" /><glyph glyph-name="uni5168" unicode="&#x5168;" d="M147 196c25 -28 58 -50 98 -65c7 -3 4 -14 -4 -10c-42 17 -77 43 -109 72c-32 -29 -66 -57 -109 -72c-10 -4 -12 8 -4 11c39 15 72 35 96 63c11 12 21 13 32 1zM50 126h164c5 0 7 -10 1 -10h-78v-57h82c5 0 5 -10 0 -10h-82v-62h100c6 0 6 -10 0 -10h-212
c-7 0 -7 10 0 10h101v62h-84c-6 0 -4 10 1 10h83v57h-76c-7 0 -7 10 0 10z" /><glyph glyph-name="uni516B" unicode="&#x516B;" d="M91 195c-6 -88 -29 -159 -69 -214c-3 -4 -7 -6 -10 -5c-3 2 -3 5 0 9c40 51 69 121 69 211c0 8 11 8 10 -1zM160 195c-1 9 10 9 11 1c6 -79 33 -149 76 -212c6 -9 -6 -12 -10 -4c-43 61 -68 132 -77 215z" /><glyph glyph-name="uni516C" unicode="&#x516C;" d="M160 201c24 -42 53 -79 88 -111c7 -7 -3 -15 -8 -8c-31 29 -60 68 -90 114c-5 8 7 12 10 5zM105 196c-23 -45 -51 -83 -86 -112c-8 -6 -13 3 -7 8c37 30 65 66 83 108c3 7 12 3 10 -4zM213 -10c-49 -5 -127 -8 -178 -8c-7 1 -10 6 -4 10c29 33 56 79 80 137
c2 7 14 2 10 -5c-27 -59 -53 -102 -78 -132c46 -1 117 4 165 7c-11 23 -24 49 -43 78c-6 9 6 12 9 5c21 -34 39 -68 56 -103c4 -7 -8 -12 -10 -4c-3 7 -6 12 -7 15z" /><glyph glyph-name="uni516D" unicode="&#x516D;" d="M135 165h107c6 0 9 -10 1 -10h-225c-10 -1 -8 9 -1 10h108c-3 13 -6 25 -11 35c-4 8 7 10 10 3c5 -13 9 -25 11 -38zM97 120c-12 -62 -38 -111 -80 -144c-7 -5 -15 2 -9 7c41 32 68 78 78 139c0 8 13 8 11 -2zM245 -22c3 -8 -7 -12 -10 -4c-18 55 -45 103 -78 145
c-8 4 2 14 8 7c35 -45 61 -95 80 -148z" /><glyph glyph-name="uni5171" unicode="&#x5171;" d="M178 204c14 15 10 -21 10 -33h45c5 0 5 -10 0 -10h-45v-82c18 -2 47 5 57 -5c-1 -3 -2 -5 -5 -5h-222c-8 0 -8 10 0 10h52v82h-48c-7 0 -7 10 0 10h48c1 12 -5 49 10 34v-34h98v33zM80 161v-82h98v82h-98zM97 50c-18 -27 -43 -52 -75 -76c-6 -4 -13 7 -6 9
c32 25 56 49 72 72c3 6 11 -1 9 -5zM165 53c26 -20 52 -44 79 -71c5 -4 -5 -13 -9 -6c-21 22 -46 45 -77 68c-7 3 0 14 7 9z" /><glyph glyph-name="uni5173" unicode="&#x5173;" d="M59 212c17 1 14 -23 26 -37c4 -8 -8 -14 -10 -5c-4 18 -18 27 -16 42zM131 154c-1 -17 -2 -50 -4 -65h111c7 0 7 -10 0 -10h-103c25 -44 61 -77 108 -99c7 -1 4 -14 -3 -10c-48 21 -86 56 -115 105c-13 -47 -49 -83 -107 -106c-9 -4 -13 7 -4 10c54 20 87 55 100 100h-99
c-9 0 -9 10 0 10h101c2 18 3 45 5 65h-94c-7 -1 -8 10 -1 10h134c9 9 17 24 26 43c3 8 16 2 11 -6c-6 -10 -14 -24 -22 -37c20 -2 50 5 62 -5c0 -3 -2 -5 -5 -5h-101z" /><glyph glyph-name="uni5174" unicode="&#x5174;" d="M73 57c5 8 15 -1 10 -8c-26 -33 -49 -57 -69 -74c-6 -5 -12 4 -6 9c26 22 47 47 65 73zM180 57c23 -19 46 -42 69 -69c6 -5 -3 -18 -8 -10c-21 27 -43 51 -67 70c-4 3 -5 7 -4 10c3 3 6 2 10 -1zM191 91h54c5 0 6 -12 0 -11h-230c-8 -1 -8 11 0 11h164
c15 36 29 73 40 112c3 11 16 7 12 -5c-15 -45 -29 -81 -40 -107zM124 209c9 -23 15 -54 20 -93c1 -10 -13 -10 -12 0c-3 33 -10 63 -19 88c-4 8 8 12 11 5zM31 201c15 -28 24 -58 31 -88c2 -10 -9 -13 -11 -3c-4 24 -14 53 -29 86c-6 8 5 14 9 5z" /><glyph glyph-name="uni5176" unicode="&#x5176;" d="M51 206c12 15 12 -13 11 -24h129c-1 11 -2 38 11 23v-23c12 -1 44 6 34 -10h-34v-135c14 -2 38 5 44 -5c0 -3 -1 -5 -4 -5h-228c-7 -1 -8 10 -1 10h38v135c-12 2 -35 -5 -39 5c4 10 27 3 39 5v24zM62 172v-38h129v38h-129zM62 123v-37h129v37h-129zM62 75v-38h129v38
h-129zM83 19c7 5 13 -5 6 -9c-25 -15 -50 -26 -74 -35c-8 -2 -10 10 -2 10c25 9 49 20 70 34zM173 19c30 -14 52 -27 67 -39c6 -4 -1 -13 -7 -8c-21 15 -43 27 -66 38c-8 4 -1 12 6 9z" /><glyph glyph-name="uni5177" unicode="&#x5177;" d="M62 192c-17 1 -12 -15 -13 -30h159c0 14 3 30 -12 30h-134zM49 151v-28h159v28h-159zM49 112v-29h159v29h-159zM92 21c5 3 13 -5 6 -9c-24 -15 -49 -27 -76 -36c-9 -2 -13 7 -4 9c31 10 55 22 74 36zM156 10c-8 2 -2 12 4 9c32 -11 58 -23 77 -35c6 -3 1 -12 -5 -9
c-27 16 -52 29 -76 35zM218 43c11 1 38 2 24 -11h-223c-17 9 10 14 20 11v141c0 11 7 18 21 18h135c14 -1 23 -6 23 -16v-143zM49 72v-29h159v29h-159z" /><glyph glyph-name="uni5185" unicode="&#x5185;" d="M139 162h78c14 0 21 -6 21 -19v-152c-8 -28 -43 -18 -66 -5c-8 3 -2 12 5 9c35 -15 51 -15 51 2v141c1 10 -4 14 -15 14h-75c-1 -14 -3 -26 -6 -36c34 -27 62 -54 84 -80c5 -5 -2 -16 -6 -8c-28 31 -55 57 -81 78c-13 -33 -41 -58 -84 -77c-11 -5 -12 6 -4 10
c55 23 84 60 86 113h-78c-11 0 -15 -5 -15 -15v-160c0 -6 -10 -6 -10 0v164c-1 14 7 21 22 21h81c0 14 1 21 1 36c15 18 12 -18 11 -36z" /><glyph glyph-name="uni51E0" unicode="&#x51E0;" d="M83 211h94c12 0 17 -6 17 -18v-197c-1 -8 7 -12 25 -11c13 -3 21 18 23 62c0 7 10 7 10 0c-1 -53 -12 -77 -33 -73c-25 -1 -35 6 -35 23v192c1 9 -2 12 -9 12h-89c-7 0 -10 -4 -10 -13c0 -127 8 -167 -49 -218c-8 -6 -16 4 -8 8c21 13 32 33 38 57c6 26 10 76 9 153
c0 15 6 23 17 23z" /><glyph glyph-name="uni51E1" unicode="&#x51E1;" d="M184 183v-179c-1 -22 17 -19 36 -19c14 0 21 18 17 59c-1 9 10 7 11 1c2 -64 -3 -75 -48 -70c-17 2 -26 10 -26 29v179c0 7 -4 11 -12 11h-97c-8 0 -12 -4 -12 -11c0 -82 6 -165 -36 -206c-6 -6 -16 0 -8 7c44 43 34 118 34 199c0 15 6 22 22 22h97c15 1 22 -7 22 -22z
M81 161c31 -35 55 -81 72 -137c3 -10 -9 -12 -11 -4c-18 56 -41 101 -69 134c-6 7 2 13 8 7z" /><glyph glyph-name="uni51FA" unicode="&#x51FA;" d="M136 200v-95h71c8 -1 12 4 12 14v65c-1 6 11 7 11 1c-5 -33 15 -91 -23 -91h-71v-105h82c6 0 9 3 9 10v73c-1 8 11 8 11 0c-7 -33 18 -93 -22 -93h-170c-42 -1 -16 61 -23 95c0 6 10 6 10 0v-74c-1 -7 4 -11 13 -11h80v105c-34 7 -95 -17 -96 22v68c-1 6 11 6 11 0v-67
c-1 -9 2 -12 11 -12h74v94c-1 6 10 6 10 1z" /><glyph glyph-name="uni5206" unicode="&#x5206;" d="M176 210c12 -43 36 -79 72 -108c7 -5 2 -15 -6 -8c-36 30 -62 67 -75 112c-4 7 7 10 9 4zM100 205c-17 -45 -43 -81 -80 -108c-8 -7 -11 3 -5 8c37 28 61 63 74 103c2 7 13 5 11 -3zM192 114h-83c-4 -74 -34 -120 -87 -143c-9 -4 -15 7 -5 9c51 22 78 67 81 134h-44
c-7 0 -7 10 0 10h143c10 -1 17 -7 17 -18c0 -107 8 -156 -100 -123c-7 2 -5 14 3 10c98 -36 83 25 86 109c-1 7 -4 12 -11 12z" /><glyph glyph-name="uni5217" unicode="&#x5217;" d="M240 198v-205c-1 -27 -38 -19 -62 -15c-7 3 -5 14 4 10c33 -7 47 -5 47 7v202c3 5 6 6 11 1zM156 189h-85c-3 -18 -5 -29 -6 -34c30 -5 85 15 83 -22c-6 -94 -45 -150 -129 -159c-6 0 -9 10 -1 10c33 4 60 16 81 36c-13 19 -33 42 -59 69c-12 -11 -17 -29 -30 -26
c-1 3 -1 6 2 9c25 22 41 61 48 117c-15 2 -40 -5 -47 5c0 3 2 6 6 6h136c5 -3 6 -7 1 -11zM186 195v-168c0 -8 -12 -8 -11 0v168c-1 6 11 5 11 0zM127 145h-64c-5 -17 -11 -32 -18 -47c20 -19 41 -42 62 -68c16 22 26 56 30 101c1 9 -3 14 -10 14z" /><glyph glyph-name="uni5230" unicode="&#x5230;" d="M239 203v-201c3 -29 -17 -37 -59 -24c-8 1 -4 14 3 11c34 -14 45 -8 45 16v198c-1 8 11 7 11 0zM186 195v-172c0 -8 -12 -7 -11 1v170c-1 7 11 8 11 1zM17 -14c12 0 42 6 61 6v60h-55c-6 -1 -6 10 -1 10h56c1 16 -1 35 1 48c-12 1 -53 -5 -64 2c-1 2 0 5 4 9
c23 23 40 46 51 67h-52c-9 0 -7 10 1 10h130c6 0 9 -10 1 -10h-68c-17 -27 -35 -51 -53 -70c39 -1 72 2 113 6c-11 19 -19 33 -27 43c-6 8 5 11 9 5c14 -19 27 -41 38 -67c-1 -19 -16 1 -16 10c-22 -3 -47 -4 -59 -4c2 -14 0 -33 1 -49c18 -2 47 5 57 -5c-1 -3 -2 -5 -5 -5
h-52v-59c25 1 52 12 68 3c1 -3 -1 -6 -4 -7c-47 -5 -98 -10 -133 -14c-9 -2 -12 12 -2 11z" /><glyph glyph-name="uni524D" unicode="&#x524D;" d="M94 188h77c8 12 5 20 14 21c12 -2 -3 -20 -2 -21h60c6 0 6 -10 0 -10h-222c-7 0 -7 10 0 10h61c-6 14 -10 13 -5 22c13 0 8 -8 17 -22zM43 155h80c11 -1 17 -6 17 -15v-148c3 -18 -17 -21 -60 -9c-7 1 -4 13 3 10c65 -24 42 7 46 48h-92c-3 -20 6 -52 -5 -64
c-3 1 -5 3 -5 6v155c-1 11 5 17 16 17zM231 150v-154c4 -21 -13 -25 -51 -15c-9 2 -8 13 2 10c27 -8 39 -7 39 2v157c0 7 10 7 10 0zM178 138v-128c0 -9 -10 -9 -10 0v128c0 7 10 7 10 0zM129 103c-3 15 8 41 -10 41h-73c-17 2 -5 -27 -9 -41h92zM129 51v42h-92v-42h92z" /><glyph glyph-name="uni529B" unicode="&#x529B;" d="M110 205c15 13 9 -23 10 -35h88c41 12 24 -49 26 -71c6 -88 -1 -144 -99 -112c-8 1 -6 14 2 11c111 -43 84 58 87 149c1 10 -4 13 -15 13h-89c-6 -93 -36 -154 -91 -185c-8 -5 -15 4 -6 9c53 29 81 89 86 176h-91c-8 0 -8 10 0 10h92v35z" /><glyph glyph-name="uni529E" unicode="&#x529E;" d="M121 180c29 -6 83 16 83 -19c0 -97 -11 -155 -22 -172c-14 -23 -55 -19 -75 -5c-7 5 0 14 7 8c82 -34 64 8 80 165c0 9 -3 13 -10 13h-64c-14 -100 -40 -165 -79 -195c-6 -5 -14 4 -7 9c37 27 62 90 75 186h-72c-10 0 -10 10 0 10h73c-4 16 12 50 13 17
c-1 -7 -1 -12 -2 -17zM226 126c12 -31 21 -68 28 -111c1 -7 -9 -12 -10 -2c-8 45 -17 81 -28 109c-6 9 7 12 10 4zM38 136c1 8 11 5 10 -2c-5 -47 -15 -82 -30 -107c-3 -4 -6 -5 -9 -3c-3 1 -3 4 0 8c13 21 22 55 29 104z" /><glyph glyph-name="uni52A8" unicode="&#x52A8;" d="M164 208c14 15 10 -21 10 -33c25 -4 65 12 65 -20c0 -69 -1 -115 -3 -138c-3 -52 -28 -52 -84 -39c-7 4 -2 13 6 10c76 -27 66 19 69 82c1 13 2 41 2 84c0 19 -36 6 -54 10c-4 -110 -10 -127 -54 -193c-4 -6 -13 1 -8 7c35 39 52 102 51 186c-13 2 -38 -5 -43 5
c4 12 29 4 43 6v33zM23 202h88c7 0 7 -10 0 -10h-88c-8 0 -8 10 0 10zM55 121h-43c-8 -1 -8 11 0 11h111c7 0 8 -12 0 -11h-58c-10 -41 -24 -79 -43 -113c35 2 65 6 90 11c-8 30 -16 57 -26 80c-3 7 7 10 10 4c11 -29 21 -62 32 -99c0 -9 -16 -7 -13 5
c-36 -5 -71 -11 -106 -9c-1 3 0 7 3 12c18 29 32 66 43 109z" /><glyph glyph-name="uni52A9" unicode="&#x52A9;" d="M174 208c16 11 8 -25 10 -36c25 -2 62 9 60 -21c-7 -76 28 -202 -69 -171c-9 3 -8 14 3 10c82 -26 56 88 56 161c0 20 -32 7 -50 11c-2 -89 -23 -152 -64 -189c-6 -5 -15 4 -7 9c38 35 58 95 61 180h-48c-5 3 -5 7 0 10h48v36zM23 182c-2 29 49 15 75 18
c13 2 19 -6 19 -19v-167c9 5 26 0 13 -8l-115 -24c-14 1 -4 14 8 12v188zM33 182v-49h74c-3 19 8 52 -9 57h-55c-7 0 -10 -3 -10 -8zM33 122v-57h74v57h-74zM107 11v44h-74v-59z" /><glyph glyph-name="uni5305" unicode="&#x5305;" d="M65 190h149c9 -1 16 -8 16 -19c3 -71 -4 -115 -17 -133c-11 -15 -34 -14 -67 3c-13 7 8 13 13 5c20 -9 34 -11 41 -5c16 13 22 55 20 125c0 10 -4 14 -11 14h-147c-22 -29 -31 -51 -54 -53c-2 4 -2 7 1 9c24 15 41 40 51 73c13 14 12 -13 5 -19zM158 144
c21 -3 9 -43 12 -64c-1 -11 -5 -17 -13 -17h-106c-2 -43 -4 -79 43 -75c56 5 150 -24 139 43c-2 8 10 7 10 0c14 -76 -83 -49 -147 -54c-83 -6 -47 86 -55 152c1 8 6 13 15 15h102zM150 134h-88c-8 0 -11 -4 -11 -11v-50h99c18 0 7 34 10 50c1 8 -3 11 -10 11z" /><glyph glyph-name="uni5316" unicode="&#x5316;" d="M172 -15c49 0 66 2 62 58c0 8 11 5 11 -1c2 -70 -21 -67 -79 -67c-42 0 -47 43 -44 91l-36 -18c-7 -3 -10 9 -3 11c13 5 26 11 39 19v127c0 6 10 6 10 0v-121c43 27 80 56 108 90c5 6 13 -3 8 -8c-34 -37 -73 -69 -116 -94c-2 -44 -3 -87 40 -87zM41 117
c-6 -9 -14 -22 -23 -34c-6 -8 -13 1 -7 8c26 31 42 69 49 112c1 9 14 5 11 -3c-5 -22 -12 -42 -19 -60v-162c0 -6 -11 -9 -11 -1v140z" /><glyph glyph-name="uni5317" unicode="&#x5317;" d="M86 48c-44 -30 -57 -50 -74 -48c-3 6 5 8 8 11c12 9 34 25 66 50v85h-65c-10 -1 -9 11 0 11h65v48c0 6 10 6 10 0v-228c0 -7 -10 -7 -10 0v71zM155 203v-76c19 11 42 30 68 59c4 4 12 -4 8 -8c-25 -24 -50 -47 -76 -66v-98c-4 -27 23 -29 51 -28c27 1 31 23 29 52
c12 14 11 -16 10 -25c0 -32 -27 -39 -63 -37c-25 1 -38 13 -38 36v191c-1 8 11 8 11 0z" /><glyph glyph-name="uni533A" unicode="&#x533A;" d="M239 195h-200c-6 -1 -9 -5 -9 -13v-187c0 -7 4 -10 11 -10h202c7 1 8 -10 1 -10h-207c-12 1 -18 6 -18 16v194c-1 13 6 20 19 20h201c7 0 7 -10 0 -10zM208 181c2 6 12 1 10 -4c-15 -35 -34 -65 -56 -92c37 -38 61 -64 70 -77c6 -6 -4 -11 -8 -8c-15 20 -39 45 -70 76
c-33 -33 -67 -59 -103 -76c-10 -2 -12 5 -4 9c38 20 71 45 98 75c-19 21 -48 49 -89 84c-8 4 -2 14 6 8c27 -22 57 -49 92 -82c18 19 36 48 54 87z" /><glyph glyph-name="uni5341" unicode="&#x5341;" d="M131 209v-92h110c8 0 9 -12 0 -11h-110v-134c0 -7 -12 -8 -11 0v134h-109c-8 -1 -8 11 0 11h109v92c-1 8 11 7 11 0z" /><glyph glyph-name="uni5343" unicode="&#x5343;" d="M31 191c83 -2 127 0 191 14c6 1 9 -10 2 -11c-33 -7 -64 -11 -93 -12v-87h110c7 0 7 -10 0 -10h-110v-110c0 -10 -12 -11 -11 0v110h-108c-8 0 -8 10 1 10h107v86c-30 -3 -64 -1 -89 -1c-10 0 -9 11 0 11z" /><glyph glyph-name="uni5348" unicode="&#x5348;" d="M62 184h174c5 0 5 -10 0 -10h-100v-88h107c5 0 5 -10 0 -10h-107v-104c0 -6 -10 -6 -10 0v104h-109c-6 -1 -6 10 -1 10h109v88h-68c-11 -17 -25 -30 -40 -42c-8 -6 -15 3 -7 8c25 17 42 40 50 70c18 12 6 -20 2 -26z" /><glyph glyph-name="uni534A" unicode="&#x534A;" d="M133 207v-94h82c5 0 7 -10 1 -10h-83v-58h106c6 0 6 -10 0 -10h-105v-61c0 -6 -12 -7 -11 0v61h-100c-9 0 -7 10 1 10h99v58h-83c-7 0 -7 10 0 10h83v94c0 6 10 6 10 0zM216 197c-9 -31 -20 -57 -32 -78c-3 -4 -6 -5 -9 -4c-3 2 -3 5 0 9c12 20 23 45 31 76
c2 7 13 3 10 -3zM47 200c13 -25 25 -50 35 -77c2 -7 -8 -10 -10 -3c-9 26 -19 52 -34 75c-4 7 6 11 9 5z" /><glyph glyph-name="uni534E" unicode="&#x534E;" d="M142 210v-64c36 19 64 38 85 57c4 6 16 -1 9 -7c-28 -25 -59 -45 -94 -61c1 -23 -6 -52 20 -51c49 2 88 -11 79 48c0 7 10 7 10 0c8 -69 -30 -58 -87 -58c-36 0 -33 24 -32 57c-18 -7 -32 -13 -47 -18c-9 -3 -11 8 -3 10c21 6 37 13 50 19v68c0 6 10 6 10 0zM64 201
c-19 -35 -10 -86 -12 -136c0 -8 -10 -8 -10 0v81c-12 -14 -17 -35 -34 -37c-3 3 -3 7 0 10c24 26 39 55 45 86c1 9 14 3 11 -4zM122 70c14 15 9 -22 10 -34h110c9 0 9 -10 0 -10h-110c-3 -19 6 -49 -5 -60c-3 1 -5 2 -5 5v55h-109c-7 0 -7 10 0 10h109v34z" /><glyph glyph-name="uni534F" unicode="&#x534F;" d="M141 177c-1 10 -1 52 12 31c-2 -6 -1 -22 -1 -31c28 -3 73 11 71 -23l-2 -37c3 2 7 0 10 -7c13 -32 19 -61 22 -88c1 -9 -11 -12 -11 -2c-5 33 -12 61 -21 83c-3 -86 -7 -152 -93 -128c-9 2 -6 16 4 12c33 -11 53 -5 64 16c9 17 16 81 16 151c0 22 -41 8 -61 12
c-1 -91 -25 -155 -71 -194c-7 -6 -14 4 -7 9c43 37 65 98 67 185h-44c-8 -1 -8 11 0 11h45zM109 123c-5 -31 -13 -62 -26 -92c-3 -10 -17 -8 -10 5c11 22 20 51 25 88c-1 10 13 9 11 -1zM51 212v-59c12 -2 34 4 38 -5c-4 -10 -26 -3 -38 -5v-168c0 -5 -10 -5 -10 0v168
c-11 2 -30 -5 -33 5c3 9 23 3 33 5v59c0 5 10 5 10 0z" /><glyph glyph-name="uni5357" unicode="&#x5357;" d="M123 210c11 13 13 -10 11 -20h110c6 0 6 -10 0 -10h-110v-27c34 -6 102 17 102 -20v-136c-3 -31 -35 -23 -62 -13c-8 3 -2 11 5 9c32 -12 47 -9 47 6v128c0 10 -5 16 -14 16h-168c-9 0 -12 -5 -12 -14v-153c0 -5 -11 -5 -10 1v153c1 40 66 17 101 23v27h-107
c-9 -1 -9 9 -1 10h108v20zM78 137c15 -1 15 -20 25 -34c2 -7 -8 -12 -10 -4c-4 14 -18 25 -15 38zM161 92h48c7 0 6 -11 -1 -10h-73v-38h79c5 0 5 -11 -1 -10h-78c-2 -19 5 -48 -5 -59c-3 1 -5 3 -5 6v53h-76c-8 0 -8 10 0 10h76v38h-73c-10 0 -6 10 2 10h95
c7 11 13 24 20 41c2 8 13 3 10 -4c-7 -17 -13 -30 -18 -37z" /><glyph glyph-name="uni535A" unicode="&#x535A;" d="M36 203v-65c10 1 31 0 18 -10h-18v-154c0 -7 -10 -7 -10 0v154c-10 -2 -32 1 -17 10h17v65c0 8 10 8 10 0zM138 208c9 14 12 -8 10 -19h73c-1 4 -11 12 -5 17c3 1 5 1 7 -1c7 -21 20 -28 14 -43c-8 -1 -10 11 -13 17h-76v-19c27 -5 75 13 76 -18v-72
c-10 -19 -12 12 -10 21h-66c-2 -10 4 -28 -5 -30c-10 2 -3 20 -5 30h-62c0 -10 3 -40 -11 -27v78c-2 32 47 13 73 18v19h-76c-7 0 -7 10 0 10h76v19zM138 151c-26 -3 -75 11 -62 -21h62v21zM148 151v-21h66c0 9 3 22 -7 21h-59zM76 121v-21h62v21h-62zM148 121v-21h66v21
h-66zM100 33c17 0 22 -23 33 -33c4 -6 -6 -11 -10 -5c-8 12 -16 22 -23 30c-3 3 -3 6 0 8zM193 67c7 18 13 -6 10 -18c13 -1 50 6 37 -10h-37c-2 -27 9 -71 -22 -67c-7 -4 -53 15 -26 18c53 -23 35 14 38 49h-139c-7 0 -7 10 0 10h139v18z" /><glyph glyph-name="uni5360" unicode="&#x5360;" d="M113 205c13 15 10 -19 10 -31h111c5 0 6 -12 0 -11h-111v-71c35 -6 98 17 98 -24c0 -33 15 -90 -22 -90h-152c-38 1 -20 58 -23 91c-4 38 57 18 89 23v113zM34 70v-69c0 -7 4 -12 13 -12h154c6 0 9 3 9 9v72c-1 7 -4 11 -10 11h-153c-9 -1 -13 -4 -13 -11z" /><glyph glyph-name="uni5385" unicode="&#x5385;" d="M47 199h191c6 0 7 -12 0 -11h-190c-9 0 -14 -6 -13 -17c0 -107 7 -123 -19 -186c-3 -5 -13 -2 -10 5c24 62 18 82 18 186c0 16 6 23 23 23zM53 139h188c7 0 7 -10 0 -10h-74c-9 -58 26 -170 -41 -160c-11 2 -39 0 -39 13c2 4 5 5 10 4c47 -9 59 -9 59 36v107h-103
c-7 0 -7 10 0 10z" /><glyph glyph-name="uni5386" unicode="&#x5386;" d="M237 195h-182c-9 0 -12 -3 -11 -10c-1 -78 7 -160 -25 -207c-4 -7 -14 -2 -8 6c30 41 23 130 23 202c0 13 5 19 19 19h185c7 0 6 -11 -1 -10zM123 136c3 13 -4 47 8 51c11 -5 -1 -31 3 -51h86c9 -1 14 -6 14 -16c0 -55 -3 -91 -7 -110c-9 -48 -45 -45 -99 -25
c-10 4 -5 13 5 10c98 -33 90 -12 90 121c0 6 -4 10 -10 10h-80c-3 -71 -27 -124 -74 -157c-6 -4 -15 4 -7 9c44 31 67 80 70 148h-59c-9 0 -7 10 1 10h59z" /><glyph glyph-name="uni539F" unicode="&#x539F;" d="M239 195h-196c-6 0 -9 -3 -8 -8c-3 -72 9 -151 -16 -201c-3 -4 -6 -5 -9 -4s-4 4 -1 9c26 46 13 128 16 197c-2 13 4 17 18 17h196c7 0 7 -10 0 -10zM80 157c-14 -1 -4 -25 -7 -38h154c-2 13 6 38 -8 38h-139zM73 109c2 -12 -6 -37 7 -37h139c14 -1 6 25 8 37h-154z
M108 39c-13 -22 -31 -42 -56 -59c-9 -6 -16 4 -6 9c21 11 39 31 52 55c4 7 14 2 10 -5zM191 45c21 -16 39 -35 55 -55c5 -7 -5 -14 -10 -7c-15 21 -33 38 -51 53c-8 4 -1 15 6 9zM135 167h84c33 0 13 -58 18 -87c2 -14 -5 -18 -18 -18h-66c-1 -52 15 -112 -56 -86
c-9 1 -7 15 3 11c63 -27 36 36 42 75c-28 6 -80 -15 -80 18v69c-4 29 38 15 62 18c4 3 13 40 19 19c-1 -5 -4 -11 -8 -19z" /><glyph glyph-name="uni53A8" unicode="&#x53A8;" d="M52 168h96c8 0 10 -10 1 -10h-96c-10 -1 -8 9 -1 10zM239 193h-194c-6 -1 -9 -3 -9 -8c1 -62 2 -167 -16 -196c-3 -7 -16 -2 -10 5c19 26 16 135 16 195c-1 10 4 15 14 15h199c6 0 7 -12 0 -11zM220 178c13 15 10 -19 10 -31c10 2 31 -2 17 -10h-17v-142
c1 -25 -21 -29 -66 -14c-7 2 -3 13 4 10c34 -14 52 -12 52 4v142h-65c-7 0 -7 10 0 10h65v31zM173 112c16 -35 23 -64 26 -86c-3 -6 -7 -7 -10 -2c-5 27 -13 54 -25 83c-3 4 7 10 9 5zM133 132c21 3 14 -34 15 -54c4 -44 -50 -17 -82 -24c-21 -4 -11 39 -13 59
c-3 35 52 15 80 19zM64 114c3 -16 -7 -49 7 -49h60c13 1 7 33 7 47c0 7 -2 10 -7 10h-61c-5 0 -7 -3 -6 -8zM68 45c5 -17 20 -33 13 -47c-3 -1 -5 0 -6 2c-5 15 -10 28 -16 41c-5 6 7 9 9 4zM120 -1c12 -2 43 12 45 1c1 -2 -1 -3 -4 -4c-58 -11 -80 -13 -118 -22
c-8 -2 -10 11 -1 10c20 5 42 8 65 12c9 22 14 38 17 49c1 7 12 3 11 -2c-3 -12 -8 -27 -15 -44z" /><glyph glyph-name="uni53BF" unicode="&#x53BF;" d="M226 -14c-66 -7 -126 -9 -206 -9c-9 0 -11 6 -3 12c27 20 48 42 63 63h-69c-8 0 -8 10 1 10h27v127c0 12 6 19 19 19h141c13 0 20 -5 20 -15v-131c11 0 42 2 27 -10h-153c-18 -24 -39 -46 -63 -65c76 0 139 3 190 8c-13 15 -25 28 -35 37c-7 4 1 14 7 8
c24 -23 41 -45 52 -63c0 -20 -16 3 -18 9zM58 198c-15 -1 -5 -26 -8 -40h158c-3 14 8 40 -10 40h-140zM50 148v-39h158v39h-158zM50 99v-37h158v37h-158z" /><glyph glyph-name="uni53C2" unicode="&#x53C2;" d="M106 126h136c8 0 8 -10 0 -10h-66c17 -25 41 -44 73 -55c7 -2 5 -14 -3 -10c-35 13 -62 35 -81 65h-66c-18 -23 -46 -45 -85 -66c-8 -5 -12 4 -6 8c34 19 60 38 78 58h-67c-8 0 -8 10 0 10h75c7 10 13 19 18 28c-17 -1 -42 -2 -76 -1c-15 1 -13 9 -2 15
c33 17 56 33 70 46c6 5 13 -5 6 -9c-18 -15 -41 -29 -69 -42c52 -1 119 0 167 4c-9 9 -20 17 -32 25c-7 2 0 13 6 9c17 -13 35 -28 54 -47c6 -20 -15 -4 -20 5c-11 -2 -50 -4 -92 -5c-5 -9 -11 -18 -18 -28zM158 102c7 5 13 -4 7 -8c-26 -21 -65 -36 -116 -49
c-10 -3 -10 9 -2 10c48 13 86 28 111 47zM181 69c7 7 14 -4 7 -9c-42 -32 -93 -50 -154 -51c-11 -1 -7 10 0 10c61 2 110 19 147 50zM217 33c7 6 14 -3 7 -8c-48 -36 -115 -56 -202 -57c-9 0 -12 11 -1 11c81 -1 147 16 196 54z" /><glyph glyph-name="uni53CA" unicode="&#x53CA;" d="M27 201h160c29 -7 2 -40 0 -64c3 -16 59 8 47 -26c-13 -37 -31 -67 -56 -90c18 -14 41 -27 70 -36c6 -2 0 -14 -4 -11c-20 7 -45 21 -76 40c-36 -22 -70 -35 -103 -40c-8 -1 -10 11 -1 10c38 8 70 20 95 37c-31 25 -56 59 -73 102c-7 -60 -27 -107 -60 -140
c-5 -6 -15 0 -9 7c42 41 63 108 62 201h-52c-7 0 -7 10 0 10zM222 108c12 32 -63 -11 -43 38c7 17 9 29 10 34c2 7 -1 11 -9 11h-91c0 -20 0 -35 -1 -44c19 -53 45 -92 80 -119c21 17 40 43 54 80z" /><glyph glyph-name="uni53CC" unicode="&#x53CC;" d="M19 200c32 -5 88 15 88 -22c0 -43 -7 -80 -21 -110c10 -17 20 -36 29 -59c4 -9 -8 -12 -10 -4c-7 18 -16 36 -25 53c-13 -23 -34 -49 -62 -78c-6 -7 -14 3 -8 8c27 25 48 51 64 80c-21 33 -39 58 -55 75c-7 8 5 14 9 6c18 -22 35 -45 51 -70c11 23 17 55 18 96
c0 10 -4 15 -13 15c-23 2 -55 -5 -72 4c0 3 2 5 7 6zM139 201c34 -7 98 19 93 -24c-6 -45 -16 -87 -37 -125c17 -28 34 -52 53 -71c5 -5 -4 -13 -9 -7c-20 23 -38 45 -51 67c-16 -21 -37 -43 -63 -65c-5 -5 -16 4 -8 8c31 25 52 47 65 67c-23 43 -39 84 -46 125
c-2 7 9 8 11 2c8 -41 22 -80 42 -115c17 31 28 69 33 114c1 9 -2 14 -9 14h-74c-8 0 -8 10 0 10z" /><glyph glyph-name="uni53D1" unicode="&#x53D1;" d="M109 214c9 -12 -7 -41 -8 -54h138c7 0 8 -11 1 -11h-142c0 -1 -4 -12 -11 -35h123c13 0 16 -7 11 -20c-14 -32 -33 -58 -56 -78c21 -15 48 -28 79 -40c8 -2 4 -11 -4 -9c-25 8 -53 22 -84 42c-33 -19 -70 -32 -109 -40c-8 -2 -12 7 -3 9c40 8 75 22 104 39
c-23 19 -43 42 -58 70c-5 3 5 11 8 6c21 -33 40 -56 58 -69c22 18 44 43 55 78c-39 5 -86 1 -128 2c-21 -49 -43 -88 -68 -119c-4 -6 -14 -1 -8 5c33 42 60 95 80 159c-23 4 -77 -13 -58 22c7 13 6 34 19 38c9 -13 -14 -39 -11 -49h53c4 13 8 30 12 49c1 3 3 5 7 5zM173 210
c24 -10 43 -23 57 -38c6 -6 -4 -15 -9 -8c-15 15 -32 27 -51 36c-8 2 -5 13 3 10z" /><glyph glyph-name="uni53D6" unicode="&#x53D6;" d="M157 192c32 0 89 17 83 -24c-6 -44 -16 -87 -37 -126c13 -23 28 -44 46 -61c4 -5 -3 -13 -9 -7c-11 10 -26 29 -43 56c-15 -21 -32 -40 -50 -55c-6 -6 -15 4 -8 8c20 15 37 35 51 59c-21 43 -34 84 -40 123c-2 7 10 9 11 2c6 -41 18 -79 36 -112c16 35 28 72 33 113
c1 9 -2 14 -9 14h-64c-9 0 -9 10 0 10zM127 27c6 4 28 3 15 -6c-4 -1 -9 -4 -15 -4c-2 -15 5 -39 -5 -46c-11 5 -2 30 -5 43c-30 -9 -67 -16 -96 -21c-6 -2 -13 7 -3 8c5 1 11 3 19 4v188c-11 -2 -33 2 -18 11h126c13 -10 -8 -13 -18 -11v-166zM117 142v51h-70v-51h70z
M117 84v47h-70v-47h70zM117 24v49h-69v-65c29 6 52 11 69 16z" /><glyph glyph-name="uni53D7" unicode="&#x53D7;" d="M220 207c4 0 9 -10 1 -10c-45 -7 -108 -10 -190 -9c-9 0 -7 10 1 10c81 0 144 3 188 9zM190 134c26 0 62 6 58 -23c-5 -12 -6 -37 -20 -40c-5 12 11 31 9 40c1 8 -3 12 -11 12h-191c-19 -3 2 -42 -13 -52c-6 11 -15 63 13 63h142c9 15 18 31 26 47c2 6 13 0 10 -5
c-9 -18 -17 -32 -23 -42zM118 182c14 -3 22 -33 16 -43c-12 1 -14 31 -19 36c-1 3 0 6 3 7zM45 178c16 3 17 -21 30 -30c-2 -27 -30 21 -30 30zM189 84h-135c-7 0 -7 10 0 10h138c13 -1 19 -8 14 -20c-11 -26 -31 -46 -58 -63c16 -7 47 -17 92 -25c9 -2 9 -14 -2 -11
c-31 5 -65 15 -104 29c-32 -15 -69 -25 -112 -32c-10 -3 -10 10 -1 11c33 4 67 14 101 28c-29 15 -51 35 -68 58c-4 5 4 12 9 7c16 -24 40 -44 72 -59c30 19 53 36 60 64c-1 2 -3 3 -6 3z" /><glyph glyph-name="uni53D8" unicode="&#x53D8;" d="M24 84h184c13 -2 17 -9 9 -19c-16 -21 -40 -40 -69 -59c37 -14 68 -23 95 -28c9 -1 5 -11 -3 -9c-32 6 -66 16 -102 31c-42 -19 -84 -29 -126 -31c-8 0 -10 9 -1 9c46 0 84 13 115 27c-25 13 -50 32 -76 54c-7 6 0 12 7 7c27 -24 53 -42 80 -55c34 23 58 39 69 61
c-57 5 -122 1 -182 2c-7 0 -7 10 0 10zM116 206c5 20 18 -13 18 -18h105c7 0 6 -11 -1 -10h-70v-85c0 -7 -11 -9 -10 0v85h-59v-85c0 -7 -10 -7 -10 0v85c-23 2 -55 -5 -72 4c0 3 2 6 7 6h99c-1 4 -3 10 -7 18zM197 161c21 -17 38 -34 47 -50c4 -7 -6 -12 -9 -5
c-7 11 -22 27 -45 47c-6 4 0 13 7 8zM66 158c-12 -21 -27 -39 -45 -56c-7 -7 -15 2 -7 8c15 11 30 28 43 53c3 6 12 1 9 -5z" /><glyph glyph-name="uni53E3" unicode="&#x53E3;" d="M48 189h165c11 -1 18 -7 18 -18v-170c0 -9 -5 -14 -16 -14h-167c-13 1 -19 6 -19 15v168c-1 12 6 19 19 19zM39 170v-165c0 -5 4 -8 11 -8h161c7 0 10 4 10 11v161c-1 6 -5 10 -11 10h-159c-8 -1 -12 -4 -12 -9z" /><glyph glyph-name="uni53E4" unicode="&#x53E4;" d="M121 207c15 14 11 -18 11 -29h108c6 0 7 -12 0 -11h-108v-62c31 -5 84 14 85 -21v-86c-1 -11 -6 -17 -17 -17h-143c-13 0 -18 6 -18 17v88c-2 31 54 15 82 19v62h-106c-8 -1 -7 11 0 11h106v29zM207 0v79c-1 9 -4 15 -11 15h-137c-7 0 -10 -2 -10 -7v-87
c-1 -6 3 -9 10 -9h136c7 1 12 4 12 9z" /><glyph glyph-name="uni53E6" unicode="&#x53E6;" d="M131 71h87c13 -1 19 -6 20 -16c5 -78 -15 -93 -98 -75c-8 1 -6 14 3 11c72 -19 89 -10 84 61c0 5 -5 9 -10 9h-87c-15 -43 -52 -71 -111 -86c-10 -2 -11 10 -2 11c58 15 91 40 99 75h-102c-9 0 -9 10 0 10h104c3 14 1 37 15 22c-1 -5 -2 -18 -2 -22zM201 204
c37 1 22 -49 22 -79c0 -15 -7 -21 -21 -21h-150c-36 -1 -16 51 -21 80c1 13 7 20 20 20h150zM55 194c-27 -1 -10 -45 -14 -68c-2 -8 4 -11 13 -11h143c28 0 10 45 15 68c-1 7 -6 11 -15 11h-142z" /><glyph glyph-name="uni53EA" unicode="&#x53EA;" d="M214 202c32 -8 13 -71 18 -106c-1 -13 -7 -19 -18 -19h-165c-11 0 -16 7 -16 21v86c1 10 6 18 18 18h163zM43 180v-80c1 -9 5 -13 12 -13h154c9 0 13 4 13 12v80c-1 8 -4 13 -11 13h-157c-7 -1 -11 -5 -11 -12zM90 43c-19 -29 -43 -52 -71 -68c-7 -3 -14 6 -5 10
c29 15 51 38 66 65c3 7 16 1 10 -7zM183 51c33 -33 54 -57 64 -71c5 -7 -5 -15 -8 -7c-23 29 -44 53 -63 70c-8 4 0 14 7 8z" /><glyph glyph-name="uni53EB" unicode="&#x53EB;" d="M234 204v-229c0 -5 -11 -5 -10 1v55c-19 -7 -43 -13 -65 -18c-13 -3 -18 2 -18 15v161c-1 6 10 6 10 1v-158c0 -7 3 -9 8 -8c5 -1 46 10 65 17v163c0 6 10 6 10 0zM28 182v-170c-1 -5 3 -8 10 -8h47c3 0 6 2 6 6v171c-5 13 -35 7 -52 7c-8 0 -11 -2 -11 -6zM18 185
c0 24 46 10 68 14c10 -1 16 -5 16 -14v-174c-1 -29 -47 -11 -72 -16c-9 0 -12 5 -12 15v175z" /><glyph glyph-name="uni53EF" unicode="&#x53EF;" d="M246 200c15 -12 -12 -11 -23 -10v-175c-6 -60 -29 -41 -98 -32c-10 1 -6 14 3 11c36 -10 59 -11 68 -8c11 1 16 11 16 28v176h-196c-5 3 -5 6 0 10h230zM175 132v-77c1 -16 -6 -21 -23 -21h-96c-15 -3 -22 5 -19 24c5 34 -17 95 22 95h95c15 2 21 -5 21 -21zM151 143h-91
c-10 1 -14 -3 -12 -13v-67c-3 -15 3 -19 17 -19h79c36 -5 15 53 20 83c2 13 -3 18 -13 16z" /><glyph glyph-name="uni53F0" unicode="&#x53F0;" d="M232 113c-53 -5 -140 -6 -203 -6c-14 0 -12 8 -4 15c41 29 70 59 89 88c4 7 14 -1 9 -7c-23 -32 -53 -60 -88 -86c49 -3 144 1 189 5c-16 21 -36 42 -60 61c-6 4 0 13 6 8c25 -20 50 -48 77 -82c6 -19 -14 -4 -15 4zM62 86h145c41 2 25 -51 25 -84c0 -15 -8 -23 -23 -23
h-149c-43 -3 -26 49 -26 83c0 15 9 24 28 24zM61 76c-29 -3 -11 -50 -16 -76c-1 -7 3 -10 14 -10h151c8 0 12 3 12 10v62c0 9 -4 14 -12 14h-149z" /><glyph glyph-name="uni53F2" unicode="&#x53F2;" d="M125 209c14 15 10 -20 10 -32h83c11 0 16 -5 16 -15v-70c1 -12 -4 -16 -15 -16h-84c-1 -29 -9 -53 -23 -74c33 -13 76 -20 131 -19c6 1 6 -11 0 -11c-55 -2 -102 6 -140 23c-22 -17 -50 -25 -84 -25c-8 0 -10 10 -1 10c31 1 56 7 75 20c-21 11 -40 29 -57 53
c-5 3 5 11 8 6c19 -25 38 -42 57 -51c13 16 21 39 23 68h-82c-11 -1 -14 4 -14 17v69c-1 11 4 15 15 15h82v32zM38 159v-61c-1 -8 3 -11 10 -11h77v80h-78c-6 -1 -9 -3 -9 -8zM135 167v-80h80c7 -1 9 2 9 10v61c0 6 -3 9 -8 9h-81z" /><glyph glyph-name="uni53F3" unicode="&#x53F3;" d="M126 180h119c6 0 7 -12 0 -11h-124c-12 -22 -25 -41 -38 -57h136c11 0 16 -7 16 -22v-93c-1 -11 -7 -18 -17 -18h-142c-12 0 -17 6 -17 18v87c-6 -8 -21 -22 -36 -35c-8 -6 -14 2 -7 8c40 35 71 73 92 112h-87c-8 -1 -7 11 0 11h92c5 10 9 20 12 30c20 14 5 -22 1 -30z
M76 101l-6 -6v-95c-1 -7 1 -10 7 -10h140c5 0 7 3 7 8v94c-1 6 -3 9 -7 9h-141z" /><glyph glyph-name="uni53F6" unicode="&#x53F6;" d="M15 184c1 29 49 11 74 16c7 -1 12 -6 12 -16v-188c2 -32 -45 -12 -71 -18c-11 0 -15 6 -15 17v189zM187 207v-73h60c5 0 5 -10 0 -10h-60v-153c0 -6 -12 -7 -11 0v153h-63c-6 0 -4 10 1 10h62v74c0 7 11 4 11 -1zM91 -4v186c0 5 -2 8 -5 8h-55c-4 -1 -6 -4 -6 -11v-180
c-1 -7 2 -11 8 -11h52c4 0 6 3 6 8z" /><glyph glyph-name="uni53F7" unicode="&#x53F7;" d="M206 206c26 1 18 -30 18 -53c0 -11 -6 -17 -17 -17h-158c-29 -4 -18 32 -20 55c0 9 7 15 20 15h157zM48 196c-15 -1 -5 -26 -8 -39c-1 -8 3 -11 10 -11h153c17 -3 8 26 10 40c1 7 -3 10 -11 10h-154zM241 96h-184c2 -15 -12 -36 10 -36h143c14 0 21 -6 21 -18
c1 -64 -56 -81 -129 -69c-25 3 -44 7 -55 10c-7 3 -5 12 4 10c70 -18 169 -29 168 49c0 5 -4 8 -11 8h-143c-29 -3 -20 24 -19 46c-13 2 -34 -4 -41 4c0 3 2 6 6 6h230c8 0 8 -10 0 -10z" /><glyph glyph-name="uni53F8" unicode="&#x53F8;" d="M234 188v-188c1 -29 -27 -35 -87 -24c-12 2 -11 16 1 12c53 -12 76 -7 76 15v177c0 8 -5 12 -16 12h-183c-7 0 -7 10 0 10h189c13 0 20 -5 20 -14zM184 150h-154c-7 0 -7 10 0 10h154c8 0 8 -10 0 -10zM53 118h108c14 1 19 -5 19 -19v-70c0 -11 -6 -16 -17 -16h-110
c-11 -1 -16 5 -16 18v67c-1 14 4 20 16 20zM160 107h-103c-7 0 -10 -4 -10 -11v-62c0 -7 3 -11 10 -11h104c5 0 8 3 8 9v66c0 6 -3 9 -9 9z" /><glyph glyph-name="uni53FC" unicode="&#x53FC;" d="M218 191h-114c-7 0 -7 10 0 10h119c18 1 24 -8 23 -26c-3 -116 -6 -178 -14 -183c-15 -24 -42 -26 -80 -7c-3 7 -2 10 5 11c35 -17 57 -16 65 3c8 8 11 67 13 177c0 11 -4 15 -17 15zM230 137c-33 -39 -75 -74 -125 -104c-9 -6 -14 5 -6 9c51 29 92 63 122 102
c3 7 16 1 9 -7zM22 169c-4 28 19 25 45 25c17 0 22 -7 22 -28v-141c1 -28 -18 -28 -45 -28c-17 0 -22 6 -22 24v148zM32 167v-145c-8 -24 47 -24 47 2v143c9 25 -54 24 -47 0z" /><glyph glyph-name="uni5404" unicode="&#x5404;" d="M80 205h113c13 -1 17 -7 12 -19c-11 -25 -32 -47 -63 -68c28 -14 62 -23 102 -28c8 0 7 -12 -1 -11c-41 4 -78 15 -113 32c-33 -17 -72 -27 -115 -33c-9 -1 -9 9 -1 10c41 5 77 16 106 30c-24 18 -43 38 -58 59c-9 -11 -20 -23 -31 -34c-6 -6 -14 4 -7 8
c21 19 37 39 46 61c3 8 15 -1 10 -7zM201 74c33 0 14 -50 19 -77c-1 -12 -7 -19 -19 -19h-144c-31 3 -11 53 -17 81c0 10 7 15 20 15h141zM202 63h-145c-4 0 -6 -3 -6 -8v-60c-1 -5 2 -7 7 -7h143c5 1 9 4 9 9v59c0 5 -3 7 -8 7zM193 191c-34 7 -81 1 -120 3
c-1 -2 -3 -5 -4 -8c15 -24 36 -44 62 -61c27 19 51 38 62 66z" /><glyph glyph-name="uni5408" unicode="&#x5408;" d="M115 199c18 18 14 14 33 -2c29 -25 62 -48 99 -66c7 -3 2 -14 -5 -10c-46 25 -83 48 -112 78c-30 -31 -64 -59 -113 -79c-10 -5 -14 6 -4 10c41 16 75 40 102 69zM55 124h150c8 0 8 -10 1 -10h-151c-7 0 -7 10 0 10zM52 58v-60c-1 -10 3 -14 13 -14h129c10 -1 14 4 14 13
v60c0 10 -4 15 -13 15h-129c-11 1 -14 -4 -14 -14zM63 -26c-39 -2 -16 57 -21 89c-2 12 4 19 15 19h140c38 1 14 -60 21 -92c0 -11 -6 -16 -18 -16h-137z" /><glyph glyph-name="uni540D" unicode="&#x540D;" d="M109 85h115c32 -4 19 -58 19 -90c0 -13 -7 -20 -20 -20h-149c-34 1 -13 56 -19 86c0 3 1 6 2 9c-8 -2 -37 -13 -52 -6c0 3 2 6 5 7c44 7 83 17 118 32c-27 18 -56 35 -86 50c-2 -1 -26 -14 -33 -6c-1 3 1 6 5 7c37 11 66 30 88 57c6 7 15 -5 6 -9h102c16 -1 22 -9 13 -24
c-25 -46 -63 -77 -114 -93zM65 63v-70c-1 -5 2 -8 7 -8h152c5 1 8 3 8 8v74c-1 4 -3 7 -7 7h-150c-7 0 -10 -4 -10 -11zM215 189c-33 7 -78 1 -116 3c-19 -17 -35 -28 -46 -33c43 -23 71 -40 86 -51c35 20 63 45 76 81z" /><glyph glyph-name="uni540E" unicode="&#x540E;" d="M227 193c-58 -7 -107 -10 -175 -9c-14 1 -7 -22 -9 -35h203c8 0 8 -10 0 -10h-203c1 -58 0 -102 -21 -144c-3 -6 -14 -1 -10 5c26 39 21 108 21 174c-1 13 4 20 14 20c74 0 134 3 179 9c6 1 9 -11 1 -10zM94 100h116c39 -2 16 -68 22 -103c-1 -13 -8 -21 -21 -21h-115
c-45 -1 -20 64 -26 101c-3 17 6 23 24 23zM221 0v76c0 9 -4 13 -11 13h-119c-7 1 -10 -4 -10 -14v-75c-1 -9 5 -14 16 -14h112c8 0 12 5 12 14z" /><glyph glyph-name="uni5473" unicode="&#x5473;" d="M156 209c15 13 9 -22 10 -34h68c5 0 5 -10 0 -10h-68v-52h75c6 0 6 -10 0 -10h-71c23 -49 49 -86 79 -111c6 -3 -2 -14 -7 -9c-33 32 -58 69 -76 110v-119c0 -5 -10 -5 -10 0v114c-16 -37 -43 -70 -82 -101c-6 -5 -14 5 -6 8c39 31 68 67 85 108h-68c-7 0 -7 10 0 10h71
v52h-63c-7 0 -7 10 0 10h63v34zM13 176c-2 26 29 19 51 19c9 0 14 -6 14 -15v-155c2 -26 -28 -16 -50 -18c-10 0 -15 6 -15 17v152zM68 178c-2 13 -26 4 -38 7c-5 0 -7 -2 -7 -6v-155c0 -14 27 -4 40 -7c3 0 5 2 5 6v155z" /><glyph glyph-name="uni548C" unicode="&#x548C;" d="M145 182c1 29 49 18 76 18c14 0 22 -7 22 -18v-183c0 -30 -47 -20 -75 -20c-16 0 -23 7 -23 21v182zM155 176v-175c0 -7 4 -11 12 -11h55c7 0 10 3 10 10v176c-2 24 -45 8 -67 13c-7 0 -10 -4 -10 -13zM79 190v-51h46c5 0 5 -10 0 -10h-46v-6c22 -23 40 -45 54 -68
c5 -6 -4 -14 -9 -6c-14 24 -30 44 -45 62v-138c-3 -5 -7 -6 -11 -1v138c-13 -33 -30 -61 -50 -83c-5 -6 -13 1 -7 7c27 32 46 64 55 95h-50c-8 0 -5 10 1 10h51v50c-2 1 -64 -9 -41 8c42 1 74 5 96 10c6 2 10 -10 2 -10c-11 -3 -26 -5 -46 -7z" /><glyph glyph-name="uni54C1" unicode="&#x54C1;" d="M29 89c30 -5 88 14 88 -17v-82c-4 -29 -55 -16 -84 -16c-11 0 -16 5 -16 15v87c1 8 5 12 12 13zM154 90c29 -5 81 13 87 -15v-86c0 -10 -5 -15 -15 -15h-71c-9 0 -14 5 -14 15v87c-1 9 4 13 13 14zM28 70v-77c-1 -5 2 -8 8 -8h60c7 1 11 4 11 10v74c0 6 -3 9 -9 9h-61
c-7 0 -9 -3 -9 -8zM47 205h160c28 -5 12 -55 16 -83c-1 -7 -6 -11 -15 -11h-160c-30 0 -10 53 -16 79c1 9 6 15 15 15zM42 187v-58c0 -5 3 -8 10 -8h151c6 -1 9 2 9 9v54c0 7 -3 10 -8 10h-151c-9 0 -12 -2 -11 -7zM151 71v-78c0 -5 3 -8 10 -8h60c6 0 9 3 9 9v75
c-1 6 -3 10 -8 10h-63c-5 0 -8 -3 -8 -8z" /><glyph glyph-name="uni54C8" unicode="&#x54C8;" d="M224 126h-130c-8 -1 -7 11 0 11h130c6 0 7 -12 0 -11zM108 90h103c12 1 18 -5 18 -17v-78c0 -12 -5 -18 -15 -18h-107c-11 0 -16 6 -16 17v79c-1 12 4 17 17 17zM152 207c4 3 9 3 14 -1c21 -18 48 -33 79 -46c5 -2 7 -6 6 -9s-4 -3 -9 -1c-25 9 -50 23 -75 42
c-7 5 -12 5 -16 1c-24 -22 -49 -37 -73 -45c-9 -4 -10 8 -3 10c22 7 48 24 77 49zM17 177c-4 19 20 14 37 15c7 -1 11 -5 11 -14v-178c4 -20 -48 -24 -48 0v177zM55 174c2 11 -24 9 -28 2v-173c-2 -10 25 -10 28 -2v173zM218 -4v73c1 7 -3 10 -10 10h-96c-8 1 -11 -2 -10 -9
v-72c-1 -6 2 -10 8 -10h101c5 1 7 3 7 8z" /><glyph glyph-name="uni5546" unicode="&#x5546;" d="M135 185h109c6 0 6 -10 0 -10h-224c-7 0 -7 10 0 10h104c-1 7 -14 20 -7 27c14 3 13 -19 18 -27zM100 133h58c7 10 14 21 19 33c3 7 14 2 10 -5c-5 -9 -10 -19 -17 -28c27 -4 70 12 70 -20v-121c2 -17 -14 -21 -49 -12c-23 20 49 -3 39 12v121c-1 6 -4 10 -10 10h-176
c-10 0 -14 -5 -14 -16v-129c0 -6 -10 -6 -10 0v128c-3 38 38 25 69 27c1 9 -15 23 -11 35c15 -2 20 -25 22 -35zM84 66h88c26 2 21 -27 21 -51c1 -12 -6 -17 -19 -17h-90c-26 -2 -16 27 -18 49c-1 13 5 19 18 19zM83 56c-14 -3 -4 -28 -7 -42c-1 -5 2 -8 8 -8h89
c16 0 8 27 10 42c0 5 -3 8 -9 8h-91zM106 102c-17 -16 -39 -28 -64 -38c-11 -4 -12 6 -4 9c27 9 48 21 61 36c5 6 13 -2 7 -7zM154 111c24 -10 46 -22 64 -39c7 -6 0 -15 -7 -8c-17 16 -38 29 -62 38c-9 3 -3 13 5 9z" /><glyph glyph-name="uni5668" unicode="&#x5668;" d="M101 205c23 -1 15 -32 15 -53c0 -10 -5 -15 -12 -15h-65c-22 0 -14 35 -14 55c0 8 4 13 12 13h64zM100 196h-58c-15 -2 -4 -28 -7 -42c0 -5 2 -8 7 -8h57c13 3 4 29 7 43c0 5 -2 7 -6 7zM173 137c6 -9 29 -13 19 -24h51c4 0 4 -9 0 -9h-86c21 -16 52 -31 92 -46
c1 -7 -1 -10 -5 -9c-40 13 -74 32 -103 55h-29c-25 -23 -57 -41 -98 -52c-6 -2 -11 8 -3 10c37 11 66 25 86 42h-80c-5 2 -6 5 -1 9h89c7 10 13 22 17 36c6 3 9 2 10 -3c-3 -11 -7 -22 -14 -33h68c2 2 -28 14 -17 24c-37 -10 -29 27 -29 55c0 8 4 12 12 13
c27 -4 73 11 79 -14c-2 -19 7 -54 -11 -54h-47zM215 196h-58c-14 -3 -4 -29 -7 -43c0 -4 2 -7 7 -7h58c12 4 4 29 6 42c0 5 -2 8 -6 8zM102 62c24 -4 10 -46 14 -70c-2 -25 -44 -10 -67 -14c-25 3 -10 47 -14 71c3 24 45 9 67 13zM100 53h-48c-5 0 -8 -2 -7 -6
c3 -19 -7 -52 7 -60c17 3 46 -6 54 6v52c0 5 -2 8 -6 8zM209 61c24 -4 10 -46 14 -70c-2 -25 -44 -10 -67 -14c-25 3 -10 47 -14 71c3 24 45 9 67 13zM207 52h-48c-5 0 -8 -2 -7 -6c3 -19 -7 -52 7 -60c17 3 46 -6 54 6v52c0 5 -2 8 -6 8z" /><glyph glyph-name="uni56DB" unicode="&#x56DB;" d="M40 198h182c15 0 23 -8 23 -23v-175c0 -14 -7 -21 -22 -21h-181c-16 0 -23 7 -23 22v177c-1 13 6 20 21 20zM29 176v-166c-1 -14 4 -21 15 -21h174c28 -2 13 34 17 55c-37 0 -85 -6 -77 32v112h-55c0 -35 2 -110 -9 -121c-5 -11 -21 -19 -48 -25c-8 -4 -12 8 -4 10
c55 15 47 17 51 87v49c-21 -4 -64 10 -64 -12zM169 188v-110c-6 -36 36 -21 66 -24v117c2 30 -42 12 -66 17z" /><glyph glyph-name="uni56DE" unicode="&#x56DE;" d="M239 180v-182c0 -12 -6 -18 -18 -18h-180c-13 0 -18 6 -18 18v184c-1 13 5 18 18 18h180c12 0 18 -7 18 -20zM33 177v-177c0 -6 4 -10 11 -10h174c7 1 11 4 11 10v178c-1 7 -6 11 -13 11h-171c-8 0 -12 -4 -12 -12zM89 153h83c13 0 19 -7 19 -20v-88
c-1 -13 -7 -20 -19 -20h-86c-10 1 -15 7 -15 20v89c-1 13 5 19 18 19zM82 134v-87c-1 -9 3 -12 10 -12h79c6 -1 9 4 9 14v82c0 8 -3 12 -10 12h-79c-7 0 -9 -3 -9 -9z" /><glyph glyph-name="uni56E0" unicode="&#x56E0;" d="M239 179v-175c0 -16 -7 -23 -20 -23h-172c-16 1 -23 7 -23 19v185c-1 11 5 16 17 16h174c15 -1 24 -9 24 -22zM34 183v-183c-1 -6 3 -9 10 -9h175c6 1 10 4 10 10v178c-1 8 -5 12 -13 12h-174c-5 0 -8 -3 -8 -8zM130 184c12 -5 3 -31 6 -45h75c6 0 6 -10 0 -10h-75
c-1 -7 -2 -15 -2 -20c33 -29 60 -61 83 -96c5 -9 -5 -15 -9 -7c-17 32 -43 62 -76 92c-8 -39 -34 -69 -79 -91c-8 -4 -14 6 -5 10c51 23 77 61 77 112h-77c-7 0 -7 10 0 10h77c2 14 -5 39 5 45z" /><glyph glyph-name="uni56ED" unicode="&#x56ED;" d="M38 206h185c12 1 18 -6 18 -20v-193c1 -13 -7 -19 -23 -19h-181c-12 -1 -17 6 -17 19v197c-1 11 5 16 18 16zM222 195h-182c-7 0 -9 -2 -9 -6v-193c-1 -9 2 -12 10 -12h176c9 -1 13 4 13 15v187c0 6 -3 9 -8 9zM64 167h131c6 0 7 -12 0 -11h-131c-8 -1 -7 11 0 11z
M217 55c-5 -42 1 -53 -37 -55c-58 -5 -24 65 -33 108h-46c-2 -67 -8 -81 -50 -109c-7 -3 -14 2 -6 7c39 29 42 38 46 102h-42c-8 0 -5 10 1 10h158c6 0 6 -10 0 -10h-50v-83c-2 -11 6 -15 25 -14c14 -3 21 11 22 44c-1 8 12 8 12 0z" /><glyph glyph-name="uni56F4" unicode="&#x56F4;" d="M115 185c9 17 12 -10 10 -21h82c7 0 6 -11 -1 -10h-81v-30h72c7 0 7 -10 0 -10h-72v-29c29 -5 82 14 85 -17c5 -55 -20 -74 -70 -57c-9 1 -5 12 3 9c41 -15 60 2 57 49c-1 3 -3 6 -6 6h-69v-78c0 -6 -10 -6 -10 0v78h-68c-7 0 -7 10 0 10h68v29h-58c-9 0 -9 10 0 10h58
v30h-62c-9 0 -9 10 0 10h62v21zM29 187v-195c0 -5 3 -8 8 -8h184c4 1 7 3 7 8v196c-1 5 -3 8 -8 8h-182c-6 -1 -9 -4 -9 -9zM238 187v-194c-1 -12 -7 -19 -18 -19h-181c-13 1 -20 7 -20 19v194c0 12 6 19 19 19h182c12 0 18 -6 18 -19z" /><glyph glyph-name="uni56FD" unicode="&#x56FD;" d="M47 202h174c10 -1 16 -7 16 -18v-187c-1 -11 -7 -18 -18 -18h-172c-15 0 -22 6 -22 17v189c-1 12 6 17 22 17zM57 171h149c6 0 6 -10 0 -10h-73v-52h68c5 0 5 -11 -1 -10h-67v-78h81c6 0 9 -10 1 -10h-167c-8 0 -8 10 0 10h75v78h-64c-10 -1 -8 9 -1 10h65v52h-66
c-7 0 -7 10 0 10zM168 88c7 -8 17 -24 31 -47c3 -12 -11 -10 -13 0c-13 20 -21 33 -26 39c-8 6 2 14 8 8zM214 193h-166c-9 0 -13 -3 -13 -10v-181c-1 -9 2 -13 9 -13h173c6 1 10 4 10 11v182c-1 7 -5 11 -13 11z" /><glyph glyph-name="uni5708" unicode="&#x5708;" d="M243 186v-191c0 -13 -6 -19 -18 -19h-188c-13 0 -18 6 -18 18v194c-1 12 5 17 18 17h188c12 0 18 -6 18 -19zM29 183v-186c-1 -6 3 -10 10 -10h184c7 0 10 3 10 9v189c-1 6 -5 10 -14 10h-178c-8 0 -12 -4 -12 -12zM132 191c9 -8 -1 -28 -3 -38h75c7 0 8 -12 0 -11h-78
c-3 -7 -8 -15 -15 -25h101c6 0 7 -12 0 -11h-38c11 -16 26 -30 46 -42c6 -4 1 -12 -6 -8c-21 14 -39 29 -51 50h-59c-19 -23 -38 -39 -55 -50c-8 -6 -13 4 -6 8c17 11 33 25 48 42c-15 2 -41 -5 -48 5c8 13 38 3 56 6c6 7 11 16 15 25h-51c-7 -1 -6 11 0 11h56
c7 12 2 32 13 38zM163 75h-65c-20 0 -9 -32 -11 -49c-4 -29 41 -15 66 -18c35 -4 49 3 46 20c-2 12 12 9 11 -1c8 -40 -67 -24 -107 -28c-39 -4 -23 37 -26 69c5 30 58 12 88 17c11 -1 16 -5 16 -14c-1 -34 -22 -44 -65 -32c-10 3 -4 14 5 11c32 -11 48 -4 48 19
c0 4 -2 6 -6 6zM78 190c14 1 12 -14 20 -27c-6 -22 -15 13 -20 19c-3 3 -3 6 0 8zM161 155c1 12 8 30 17 34c5 -11 -6 -33 -17 -34z" /><glyph glyph-name="uni571F" unicode="&#x571F;" d="M131 204v-53h91c6 0 7 -12 0 -11h-91v-149h106c8 1 7 -10 2 -11h-227c-7 0 -6 12 1 11h107v149h-91c-8 -1 -8 11 0 11h91v54c0 7 11 6 11 -1z" /><glyph glyph-name="uni5728" unicode="&#x5728;" d="M108 188h134c7 0 7 -10 0 -10h-137c-11 -28 -27 -57 -48 -87v-116c0 -5 -10 -7 -10 -1v104c-9 -11 -19 -23 -30 -35c-6 -7 -14 1 -7 8c41 43 68 86 83 127h-78c-8 0 -8 10 0 10h81c5 11 3 25 13 25c9 -4 -1 -16 -1 -25zM159 146c13 -8 3 -38 6 -55h73c6 0 9 -11 1 -11
h-74v-92h77c9 1 9 -9 1 -10h-162c-7 0 -7 10 0 10h74v92h-72c-8 -1 -7 11 0 11h71v50c0 3 2 4 5 5z" /><glyph glyph-name="uni5730" unicode="&#x5730;" d="M237 136c-4 -84 -1 -101 -55 -82c-9 3 -5 12 3 10c55 -27 35 31 42 99c-1 6 -5 7 -13 4l-42 -19v-116c0 -7 -11 -10 -11 -1v112l-48 -21c7 -50 -21 -137 35 -136c49 1 93 -13 87 45c0 6 10 6 10 0c8 -64 -43 -55 -101 -55c-63 0 -35 86 -41 141c-9 -2 -21 -15 -30 -8
c2 12 21 13 30 19c2 20 -5 48 4 61c3 0 5 -2 6 -5v-51l48 21c3 17 -6 45 5 54c12 -6 3 -33 6 -49l44 20c24 11 22 -21 21 -43zM49 205c11 -11 2 -41 5 -60c12 0 43 4 29 -11h-29v-115c11 4 20 21 35 24c3 -3 3 -5 1 -7c-20 -20 -44 -36 -72 -47c-8 -4 -12 7 -4 9
c10 3 20 8 30 14v122c-11 -2 -40 0 -22 11h22v55c0 3 2 4 5 5z" /><glyph glyph-name="uni573A" unicode="&#x573A;" d="M47 31c16 8 27 31 43 30c2 -3 2 -6 -1 -9c-27 -24 -52 -42 -76 -53c-7 -4 -12 5 -5 8c10 6 19 12 28 17v111c-11 -1 -40 -1 -23 10h23v62c-1 6 11 6 11 0v-62c11 -1 43 4 30 -10h-30v-104zM93 205h127c12 0 19 -10 10 -18c-36 -31 -77 -55 -121 -72h118
c11 0 17 -5 17 -14c-7 -120 -2 -147 -94 -121c-8 2 -4 13 3 10c81 -26 74 1 81 106c0 13 -19 6 -30 8c-12 -59 -41 -101 -86 -128c-7 -5 -12 3 -5 7c42 26 68 67 81 121h-43c-12 -39 -39 -71 -79 -98c-8 -5 -13 4 -6 8c37 24 61 54 74 90c-18 2 -44 -4 -56 4c0 3 2 6 5 8
c56 25 100 46 128 76c-35 7 -84 1 -124 3c-7 0 -7 10 0 10z" /><glyph glyph-name="uni578B" unicode="&#x578B;" d="M236 198v-126c-1 -25 -22 -29 -63 -12c-8 1 -2 13 4 10c31 -14 48 -13 48 2v126c-1 8 11 7 11 0zM149 201c18 -13 -18 -10 -30 -10v-49c13 -1 50 4 35 -10h-35v-66c0 -7 -11 -10 -11 -1v67h-47c-5 -31 -15 -58 -32 -79c-3 -4 -6 -5 -9 -3s-3 5 0 8c18 23 28 47 30 74
c-13 2 -36 -5 -41 5c6 10 29 3 42 5v49c-12 0 -48 -3 -30 10h128zM177 191v-96c0 -10 -12 -11 -11 0v96c-1 8 11 8 11 0zM108 191h-47v-49h47v49zM123 54c11 13 11 -11 10 -21h85c7 0 7 -10 0 -10h-85v-35h107c6 0 6 -10 0 -10h-224c-7 0 -7 10 0 10h107v35h-87
c-7 0 -7 10 0 10h87v21z" /><glyph glyph-name="uni57DF" unicode="&#x57DF;" d="M246 37c-2 -93 -26 -78 -49 2c-25 -29 -54 -50 -85 -63c-7 -2 -12 8 -4 11c34 11 62 34 86 66c-6 27 -12 80 -16 121h-104c-7 0 -7 10 0 10h103c-1 1 -7 41 8 26l3 -26h35c4 0 -19 17 -12 26c3 1 5 1 8 -1c10 -14 19 -28 26 -42c0 -15 -12 -8 -15 7h-41
c3 -40 7 -76 14 -108c9 19 17 45 23 76c1 6 11 3 10 -3c-4 -23 -14 -53 -30 -90c7 -26 14 -46 23 -60c5 2 7 19 7 50c0 7 10 4 10 -2zM42 208c12 -6 3 -34 6 -50c10 2 29 -1 17 -11h-17v-108c7 2 18 22 26 11c1 -3 0 -5 -3 -7c-25 -17 -44 -29 -57 -34c-8 -4 -11 7 -4 10
c10 5 19 10 27 15v113c-11 -1 -39 -2 -23 11h23v44c0 4 2 6 5 6zM72 130c0 30 49 12 75 17c27 -1 16 -43 16 -68c0 -31 -50 -12 -76 -17c-26 1 -15 44 -15 68zM83 128v-46c-1 -7 2 -9 9 -9h51c19 2 6 38 10 56c-1 5 -3 7 -8 7h-54c-6 0 -8 -3 -8 -8zM158 44c8 4 9 -7 2 -10
c-28 -13 -66 -28 -113 -41c-7 -2 -10 7 -2 9c46 13 83 29 113 42z" /><glyph glyph-name="uni5802" unicode="&#x5802;" d="M191 133c23 1 16 -33 16 -54c0 -29 -49 -11 -74 -16v-30h94c6 0 6 -10 0 -10h-94v-36h109c6 0 6 -10 0 -10h-225c-8 0 -8 10 0 10h106v36h-92c-8 0 -8 10 0 10h92v30c-26 5 -73 -13 -73 17c0 22 -8 53 18 53h123zM69 123c-15 -1 -7 -29 -9 -43c0 -5 3 -7 9 -7h121
c13 2 4 26 7 38c0 8 -4 12 -11 12h-117zM128 215c12 -5 3 -32 6 -47h43c8 9 17 21 25 37c3 6 15 3 10 -5c-6 -10 -13 -21 -20 -32c45 5 69 -5 51 -55c-3 -8 -15 -6 -10 5c10 22 7 36 -7 39h-193c-21 -2 1 -40 -14 -50c-10 5 -3 29 -5 42c-1 12 6 19 20 19h89v41c0 4 2 6 5 6
zM50 209c16 -1 29 -25 25 -38c-12 -1 -20 27 -25 30c-3 3 -3 5 0 8z" /><glyph glyph-name="uni5854" unicode="&#x5854;" d="M40 204c10 -9 2 -36 5 -53c11 2 39 -1 22 -10h-22v-114c7 2 16 20 27 15c2 -2 2 -4 0 -7c-11 -11 -29 -22 -55 -35c-25 4 13 17 18 22v119c-11 -2 -42 0 -22 10h22v49c0 3 2 4 5 4zM101 205c9 17 12 -11 10 -22h78c-1 11 -1 40 10 22v-22c13 -2 37 5 42 -5
c-7 -8 -29 -2 -42 -4c2 -12 -1 -49 -10 -27v27h-78c-1 -10 4 -30 -5 -32c-10 2 -3 22 -5 32c-12 1 -52 -4 -35 9h35v22zM159 160c20 -26 47 -46 81 -63c4 -2 5 -5 4 -8s-4 -4 -8 -2c-28 10 -59 35 -84 65c-21 -28 -46 -52 -83 -66c-9 -4 -11 8 -3 10c36 15 62 37 77 64
c5 6 11 6 16 0zM100 97h105c6 0 6 -10 0 -10h-105c-7 0 -7 10 0 10zM206 64c27 1 13 -43 16 -67c2 -15 -4 -20 -16 -20h-106c-25 1 -11 45 -14 68c-2 13 5 19 17 19h103zM205 55h-102c-14 -7 -4 -39 -7 -58c-1 -7 3 -10 10 -10h98c5 0 8 3 8 8v51c0 6 -2 9 -7 9z" /><glyph glyph-name="uni5858" unicode="&#x5858;" d="M44 196v-53c11 2 38 -1 21 -10h-21v-109c10 3 19 20 32 15c2 -3 1 -6 -2 -8c-24 -13 -43 -32 -69 -29c3 11 17 9 29 17v114c-10 -2 -39 0 -21 10h21c2 19 -5 46 4 58c3 0 5 -2 6 -5zM172 197h70c5 0 7 -10 1 -10h-140c-7 0 -10 -3 -9 -8c0 -73 6 -174 -32 -201
c-8 -6 -14 2 -7 8c35 30 29 121 29 191c0 33 51 15 79 20c0 6 -10 12 -4 17c9 2 11 -10 13 -17zM164 179c8 14 12 -6 10 -16c23 -3 65 10 63 -17v-23c11 4 23 -7 10 -10h-10c0 -21 4 -40 -19 -40h-44c3 -12 -5 -36 -10 -16v16h-51c-8 0 -8 10 1 10h50v30h-61
c-10 -1 -8 9 -1 10h62v30h-49c-8 0 -8 10 0 10h49v16zM220 39h-96c-5 0 -8 -2 -7 -5v-41c-1 -5 2 -7 7 -7h96c14 4 4 31 7 46c0 4 -2 7 -7 7zM216 48c30 4 19 -29 21 -54c1 -12 -6 -18 -21 -18h-90c-27 -4 -17 29 -19 52c-1 14 5 20 19 20h90zM227 123c-2 10 6 30 -7 30h-46
v-30h53zM219 83c13 -2 6 19 8 30h-53v-30h45z" /><glyph glyph-name="uni5883" unicode="&#x5883;" d="M101 121h111c30 0 14 -42 17 -66c3 -23 -25 -14 -45 -16c3 -24 -11 -59 19 -55c14 2 35 -5 33 11c-1 10 -2 35 10 22c0 -23 5 -43 -21 -43c-24 0 -57 -3 -51 20v45h-45c-9 -42 -39 -65 -89 -68c-5 4 -6 8 -1 11c45 4 70 23 77 57c-17 1 -37 -6 -34 15c5 26 -13 67 19 67z
M101 111c-14 1 -6 -15 -8 -26h125c-1 12 5 26 -10 26h-107zM218 75h-125c2 -12 -7 -26 10 -26h107c12 -1 7 16 8 26zM45 203v-55c10 2 29 -1 17 -10h-17v-112c9 7 16 14 21 20c7 1 9 -1 8 -8c-13 -15 -31 -28 -56 -39c-24 3 13 17 17 21v118c-11 -1 -41 -1 -24 10h24v55
c0 5 10 5 10 0zM149 195c-1 9 -8 11 -2 17c9 2 10 -10 12 -17h73c13 -15 -21 -9 -31 -10c-1 -3 -4 -15 -8 -36h49c5 -3 5 -7 0 -10h-164c-11 17 29 8 41 10c2 -4 -7 22 -9 36c-11 1 -42 -5 -31 10h70zM190 185h-69c3 -12 7 -24 11 -36h50c4 21 7 33 8 36z" /><glyph glyph-name="uni58EB" unicode="&#x58EB;" d="M125 209c13 -8 3 -39 6 -57h108c8 0 8 -12 0 -11h-108v-150h98c8 1 7 -11 0 -11h-204c-7 0 -8 12 0 11h95v150h-106c-8 -1 -7 11 0 11h106c3 18 -6 47 5 57z" /><glyph glyph-name="uni5904" unicode="&#x5904;" d="M172 215c12 -7 3 -35 6 -51c29 -30 53 -62 70 -97c5 -10 -8 -13 -10 -4c-18 34 -38 64 -60 89v-149c0 -6 -12 -7 -11 0v206c0 3 2 5 5 6zM49 205c24 -4 72 11 72 -14c0 -71 -11 -124 -32 -160c28 -47 85 -47 156 -45c8 0 8 -10 0 -10c-75 -2 -132 -4 -162 46
c-16 -18 -38 -34 -65 -47c-9 -5 -13 6 -5 9c27 12 48 28 63 47c-20 33 -34 63 -41 90c-5 -27 -12 -52 -19 -73c-1 -8 -15 -7 -9 3c16 49 32 101 32 158c0 10 13 5 10 -4zM105 195h-57c-4 -21 -7 -42 -10 -57c15 -42 30 -75 45 -98c18 35 27 85 28 150c0 3 -2 5 -6 5z" /><glyph glyph-name="uni5916" unicode="&#x5916;" d="M186 206v-75c24 -18 47 -39 65 -65c6 -8 -3 -16 -9 -7c-16 26 -35 46 -56 60v-148c0 -6 -10 -6 -10 0v235c0 5 10 5 10 0zM122 190h-63c-6 -26 -13 -47 -20 -62c35 -25 57 -42 66 -49c13 23 22 56 28 98c1 9 -2 13 -11 13zM61 200c33 -5 87 16 81 -26
c-13 -87 -47 -157 -111 -196c-9 -5 -13 6 -5 9c35 25 60 53 74 82c-32 25 -54 42 -66 50c-5 -6 -12 -29 -26 -27c-3 2 -3 5 0 8c23 26 38 61 43 105c0 9 14 4 10 -5z" /><glyph glyph-name="uni591A" unicode="&#x591A;" d="M105 202h91c26 -1 25 -11 12 -30c-43 -61 -91 -87 -195 -91c-8 -2 -7 10 0 10c47 3 84 10 113 23c-15 11 -39 26 -72 45c-8 -2 -29 -16 -37 -7c-1 3 1 5 5 7c33 9 59 26 76 52c5 7 13 -4 7 -9zM174 102c30 -3 89 11 73 -26c-40 -90 -87 -102 -212 -105c-8 0 -8 10 0 10
c63 1 107 7 133 19c-30 27 -55 47 -74 60c-15 -4 -31 -6 -50 -8c-10 -1 -11 10 -1 10c56 5 98 21 125 48c5 6 12 -4 6 -8zM137 121c26 15 54 37 67 67c0 3 -3 4 -9 4h-99c-9 -10 -20 -19 -33 -27c25 -13 49 -28 74 -44zM237 87c-17 9 -52 2 -76 4c-16 -12 -34 -21 -54 -27
c18 -13 42 -33 72 -58c22 12 50 41 58 81z" /><glyph glyph-name="uni591C" unicode="&#x591C;" d="M211 151h-78c-8 -23 -17 -41 -28 -56c14 -29 33 -54 58 -74c29 24 55 62 55 117c0 8 -2 13 -7 13zM133 192h104c6 0 7 -12 0 -11h-218c-7 -1 -6 11 0 11h104c-2 6 -10 15 -5 21c11 3 14 -16 15 -21zM54 109v-132c0 -6 -10 -9 -10 -1v116c-11 -14 -18 -36 -36 -41
c-3 3 -3 5 0 8c27 27 46 64 56 112c0 7 12 3 10 -2c-5 -21 -12 -41 -20 -60zM140 128c20 -19 36 -37 48 -54c4 -6 -4 -13 -8 -7c-15 21 -30 40 -47 54c-6 5 1 14 7 7zM136 161c32 -6 95 16 92 -22c-5 -55 -25 -96 -56 -125c24 -15 49 -26 76 -32c8 -2 4 -12 -3 -10
c-25 6 -52 17 -81 34c-21 -15 -50 -26 -87 -33c-10 -2 -13 8 -2 10c34 5 60 17 79 30c-25 23 -44 48 -57 73c-7 -8 -17 -17 -28 -26c-7 -6 -14 3 -7 8c34 24 56 58 65 99c2 10 15 3 9 -6z" /><glyph glyph-name="uni5927" unicode="&#x5927;" d="M134 206v-52h105c5 0 6 -12 0 -11h-104c12 -61 48 -116 109 -161c6 -4 -1 -13 -7 -9c-55 42 -91 90 -107 145c-11 -59 -48 -106 -113 -143c-8 -5 -13 6 -6 9c67 37 104 90 111 159h-106c-5 3 -5 7 0 11h107v52c-1 6 11 5 11 0z" /><glyph glyph-name="uni5929" unicode="&#x5929;" d="M31 200h192c7 0 7 -10 0 -10h-91v-71h108c6 0 7 -12 0 -11h-105c17 -55 53 -96 108 -123c7 -3 2 -15 -5 -11c-57 29 -94 70 -110 124c-13 -59 -49 -101 -109 -125c-9 -3 -12 8 -4 11c59 23 94 65 105 124h-104c-8 -1 -8 11 0 11h105v71h-89c-10 -1 -10 9 -1 10z" /><glyph glyph-name="uni592E" unicode="&#x592E;" d="M123 209c17 12 9 -26 11 -38h75c32 -3 11 -58 17 -86c11 2 33 -1 19 -11h-110c20 -41 57 -70 110 -89c7 -2 2 -14 -5 -11c-57 23 -94 53 -112 90c-12 -39 -50 -70 -113 -93c-6 -2 -11 8 -3 10c59 21 95 52 109 93h-109c-17 9 9 14 19 11v70c0 11 6 16 17 16h75v38z
M42 154v-69h81v76h-72c-7 0 -9 -2 -9 -7zM208 161h-74v-76h81v69c0 5 -2 7 -7 7z" /><glyph glyph-name="uni5948" unicode="&#x5948;" d="M117 184c4 5 0 41 15 27c-1 -9 -1 -19 -3 -27h106c5 0 5 -10 0 -10h-83c19 -31 51 -52 94 -63c6 -1 4 -15 -2 -11c-46 11 -81 35 -104 74h-14c-21 -34 -57 -55 -106 -68c-10 -2 -11 9 -3 10c47 11 79 30 96 58h-90c-5 3 -5 7 0 10h94zM80 114h96c6 0 6 -10 0 -10h-96
c-7 0 -7 10 0 10zM17 70h225c4 -3 4 -7 0 -10h-107c-1 -56 15 -110 -62 -83c-5 5 -4 9 3 10c69 -25 45 28 49 73h-108c-7 0 -7 10 0 10zM65 35c3 6 13 0 9 -5c-12 -21 -30 -37 -55 -50c-5 -2 -12 7 -5 9c23 10 41 25 51 46zM190 35c18 -16 35 -33 50 -50c5 -5 -3 -13 -7 -7
c-15 17 -32 33 -49 50c-7 3 2 12 6 7z" /><glyph glyph-name="uni5949" unicode="&#x5949;" d="M114 191c-2 32 19 25 10 0h101c7 0 7 -10 0 -10h-102c-2 -12 -4 -22 -6 -31h101c6 0 6 -10 0 -10h-104c-4 -12 -9 -23 -14 -32h135c7 0 7 -10 0 -10h-67c12 -17 39 -39 81 -64c6 -3 2 -14 -4 -10c-40 22 -70 47 -90 74h-61c-17 -27 -44 -51 -81 -73c-8 -5 -12 5 -5 9
c31 18 56 39 73 64h-66c-8 0 -8 10 0 10h73c6 11 11 22 15 32h-71c-7 0 -7 10 0 10h74c3 13 6 23 7 31h-90c-7 0 -7 10 0 10h91zM120 83c13 13 10 -16 10 -26c19 -3 49 6 60 -5c-1 -3 -2 -5 -5 -5h-55v-32h94c8 0 8 -10 0 -10h-94c-2 -12 6 -36 -6 -39c-8 6 -2 27 -4 39h-93
c-7 0 -7 10 0 10h93v32c-19 2 -47 -5 -59 4c0 3 2 5 5 6h54v26z" /><glyph glyph-name="uni597D" unicode="&#x597D;" d="M43 170c4 14 -1 37 10 39c11 -6 0 -24 2 -39c26 -2 57 10 52 -24c-7 -50 -17 -89 -37 -118c10 -9 27 -21 34 -26c6 -3 -1 -13 -7 -8c-13 11 -25 18 -34 24c-16 -17 -32 -30 -47 -40c-9 -5 -13 6 -5 9c19 13 34 25 43 38c-10 14 -47 24 -37 51c12 32 21 60 25 84
c-11 2 -31 -4 -34 5c3 9 24 4 35 5zM118 197h102c14 -1 16 -11 7 -21c-13 -13 -34 -34 -46 -45c-10 -17 14 -26 17 -40c16 -2 43 5 51 -5c-7 -10 -32 -2 -47 -5c23 -85 -18 -138 -85 -94c-7 5 -3 16 6 12c60 -55 90 30 66 82h-79c-10 0 -10 10 0 10h75c-6 17 -34 25 -15 45
c13 15 33 30 47 48c-29 5 -67 1 -99 2c-8 -1 -7 11 0 11zM96 145c4 25 -25 12 -43 15c-5 -25 -15 -53 -24 -84c-7 -25 16 -24 32 -41c17 25 27 62 35 110z" /><glyph glyph-name="uni5982" unicode="&#x5982;" d="M47 171c1 6 3 58 17 34c-3 -15 -5 -26 -6 -34c25 -3 69 10 68 -18c-1 -45 -11 -86 -34 -122c15 -11 27 -23 41 -32c3 -8 -8 -14 -12 -5c-11 9 -22 18 -35 27c-21 -22 -42 -38 -65 -48c-8 -3 -12 7 -5 9c25 12 45 27 60 46c-19 23 -71 35 -53 67c5 9 12 30 22 65
c-12 1 -48 -4 -32 11h34zM139 179c-2 35 48 18 77 22c13 -1 20 -8 20 -20v-184c1 -32 -46 -20 -74 -20c-16 0 -23 6 -23 18v184zM150 177v-178c-2 -9 2 -12 13 -12h53c7 0 10 4 10 12v180c-3 22 -43 8 -64 12c-9 0 -12 -5 -12 -14zM56 160c-12 -45 -19 -53 -25 -79
c-3 -3 14 -17 52 -43c19 27 30 64 33 109c1 25 -40 8 -60 13z" /><glyph glyph-name="uni5993" unicode="&#x5993;" d="M173 208c11 17 13 -12 11 -24c19 -3 49 6 60 -5c-1 -3 -2 -5 -5 -5h-55v-47c23 0 56 5 48 -21c-10 -30 -26 -57 -49 -80c19 -19 40 -34 61 -45c6 -3 -1 -15 -6 -10c-21 12 -43 28 -64 47c-25 -19 -48 -33 -67 -42c-8 -3 -13 7 -5 10c25 11 47 25 64 40
c-19 23 -31 49 -41 77c-3 8 7 11 10 4c9 -29 23 -53 40 -72c20 19 35 43 46 72c2 7 0 10 -6 10h-88c-8 0 -8 10 0 10h46v47h-55c-8 0 -8 10 0 10h55v24zM18 75c6 27 21 67 23 89c-12 -1 -45 -2 -27 11h28c3 12 0 33 10 38c10 -6 0 -24 1 -38c22 -2 51 8 51 -19
c0 -43 -9 -83 -30 -119c12 -15 34 -21 35 -37c-15 -7 -15 9 -42 27c-14 -18 -31 -32 -50 -46c-9 -6 -15 5 -8 9c22 13 38 29 50 45c-7 6 -47 37 -41 40zM52 164c-9 -46 -18 -61 -23 -88c-5 2 21 -21 36 -32c20 35 30 72 29 111c-1 16 -28 6 -42 9z" /><glyph glyph-name="uni59CB" unicode="&#x59CB;" d="M21 74c5 28 14 63 18 91c-12 -1 -41 -1 -24 11h25c4 12 -3 34 9 38c11 -5 1 -26 3 -38c19 -2 51 7 49 -15c-1 -54 -11 -97 -29 -130c22 -27 35 -26 33 -42c-15 2 -28 21 -40 32c-13 -16 -27 -31 -45 -42c-7 -4 -14 7 -5 10c17 11 31 24 43 41c-6 6 -38 38 -37 44zM90 158
c-3 13 -27 5 -40 7c-7 -44 -13 -74 -18 -89c-2 1 9 -11 32 -36c16 34 25 73 26 118zM112 63c4 36 64 17 98 20c35 3 14 -54 20 -83c0 -15 -6 -22 -17 -22h-78c-39 -1 -17 54 -23 85zM123 62v-61c-1 -9 3 -13 12 -13h75c7 0 10 4 10 12v63c0 6 -4 9 -12 9h-74
c-7 -1 -11 -4 -11 -10zM106 124c23 27 41 55 54 85c3 8 15 0 10 -6c-16 -35 -36 -61 -55 -85c30 0 82 0 108 5c-9 19 -18 36 -27 51c-5 8 6 12 10 5c16 -29 30 -58 41 -86c4 -9 -7 -12 -10 -4c-1 5 -5 13 -10 25c-21 -3 -89 -7 -114 -6c-12 0 -15 7 -7 16z" /><glyph glyph-name="uni5B09" unicode="&#x5B09;" d="M156 196c-4 21 15 16 10 0h69c5 0 8 -9 1 -9h-70v-24h67c5 0 6 -9 0 -9h-142c-8 0 -7 9 0 9h65v24h-70c-8 0 -7 9 0 9h70zM106 138h111c20 2 16 -18 16 -36c1 -17 -14 -14 -29 -14c-2 -7 -5 -21 -7 -30c16 -3 44 6 52 -5c-1 -3 -2 -5 -5 -5h-168c-7 0 -7 10 0 10h52
c-3 10 -7 20 -11 30c-26 -6 -25 11 -25 36c0 9 4 14 14 14zM111 128c-14 1 -8 -11 -9 -22c-1 -6 2 -8 8 -8h106c9 -2 10 30 -2 30h-103zM129 88c3 -9 6 -21 10 -30h47c3 7 5 17 7 30h-64zM107 31h114c21 1 11 -29 13 -46c0 -6 -4 -9 -11 -9h-115c-22 -2 -12 25 -14 43
c-1 8 4 12 13 12zM113 21c-13 1 -6 -15 -8 -26c-1 -6 1 -9 6 -9h107c9 1 11 35 -2 35h-103zM15 75c6 27 14 54 18 87c-11 -3 -31 3 -16 11h16c0 10 -2 45 11 30c0 -12 -1 -18 -1 -30c18 1 37 2 34 -18c-4 -45 -12 -85 -23 -119c7 -10 17 -22 29 -37c2 -14 -11 -9 -17 2
c-6 10 -12 17 -17 24c-5 -13 -15 -28 -29 -45c-7 -7 -14 3 -7 8c13 13 22 28 29 45c-16 18 -32 44 -27 42zM68 152c2 14 -14 9 -25 10c-7 -49 -13 -69 -18 -87c2 -8 17 -25 22 -31c9 27 14 63 21 108z" /><glyph glyph-name="uni5B50" unicode="&#x5B50;" d="M41 202h167c11 0 23 -12 10 -21c-43 -29 -60 -38 -84 -57c2 -10 14 -21 20 -34h92c6 0 7 -12 0 -11h-88c17 -38 17 -104 -28 -104c-23 -1 -47 3 -72 11c-9 3 -5 14 4 11c36 -10 87 -24 94 17c3 17 -1 39 -10 65h-126c-11 0 -8 11 1 11h119c-3 9 -19 25 -19 36
c18 19 60 36 87 63c-50 7 -112 1 -167 3c-9 0 -9 10 0 10z" /><glyph glyph-name="uni5B58" unicode="&#x5B58;" d="M101 186h135c5 0 5 -10 0 -10h-137c-9 -21 -22 -43 -38 -66v-135c0 -6 -11 -9 -11 -1v123c-14 -9 -29 -38 -42 -30c-1 3 -1 5 2 8c31 25 57 58 77 101h-68c-7 0 -7 10 0 10h70c1 -2 8 44 18 22c-3 -15 -5 -23 -6 -22zM104 145h109c16 -1 22 -7 18 -18
c7 -1 -65 -32 -68 -36c7 -11 20 -24 24 -33h59c5 0 5 -10 0 -10h-55c16 -65 -27 -96 -86 -63c-8 4 -2 14 4 11c52 -31 87 -4 71 52h-89c-8 0 -5 10 1 10h82c4 10 -42 33 -16 44c7 3 52 22 62 30c-33 7 -78 1 -116 3c-7 0 -7 10 0 10z" /><glyph glyph-name="uni5B66" unicode="&#x5B66;" d="M189 159c23 0 54 5 52 -19c-1 -15 -6 -29 -11 -42c-3 -7 -12 -3 -9 5c11 31 12 46 1 46h-187c-24 0 2 -45 -16 -55c-3 0 -5 2 -5 5c3 24 -11 61 18 60h143c11 15 22 32 31 51c2 6 16 4 10 -5c-9 -17 -18 -32 -27 -46zM42 210c16 -22 33 -28 27 -45c-3 -1 -5 0 -7 4
c-8 12 -17 22 -28 33c-6 5 2 13 8 8zM127 54c-4 3 -17 11 -14 16c15 10 67 30 74 39c-35 7 -93 1 -137 3c-7 0 -7 10 0 10h143c17 -1 14 -11 3 -19c-16 -12 -45 -25 -68 -37c0 -3 10 -10 11 -12h101c6 0 6 -10 0 -10h-96c18 -66 -14 -88 -70 -69c-7 2 -6 14 4 10
c54 -24 71 14 54 59h-119c-7 0 -7 10 0 10h114zM114 211c11 -13 19 -25 25 -38c3 -8 -7 -12 -10 -3c-7 16 -22 27 -24 42c3 2 6 2 9 -1z" /><glyph glyph-name="uni5B81" unicode="&#x5B81;" d="M27 126h199c7 0 7 -10 0 -10h-83v-122c-1 -26 -24 -32 -66 -15c-4 1 -5 4 -4 7s3 4 7 3c36 -13 52 -11 52 5v122h-104c-10 -1 -8 9 -1 10zM122 194c-5 8 -3 23 7 14c0 -4 3 -12 3 -14h93c22 1 15 -31 10 -42c-21 -16 9 31 -10 32h-191c-19 1 2 -34 -14 -40
c-9 9 -12 50 15 50h87z" /><glyph glyph-name="uni5B87" unicode="&#x5B87;" d="M122 192c-3 4 -10 31 5 18c2 -8 4 -14 5 -18h91c33 2 22 -45 15 -60c-26 -14 16 50 -16 50h-188c-21 -2 1 -41 -14 -51c-3 0 -5 2 -5 5c3 22 -10 56 17 56h90zM214 134h-76v-59h108c6 0 7 -12 0 -11h-108v-64c2 -31 -30 -38 -97 -20c-8 1 -3 15 3 11c56 -16 84 -13 84 9
v64h-112c-9 -1 -9 9 -1 10h113v60h-82c-7 0 -7 10 0 10h168c6 0 6 -10 0 -10z" /><glyph glyph-name="uni5B8C" unicode="&#x5B8C;" d="M42 141h170c5 0 6 -12 0 -11h-170c-8 -1 -7 11 0 11zM11 88h234c6 0 6 -10 0 -10h-86c5 -35 -16 -94 26 -94c33 0 50 0 48 38c-1 6 11 7 11 1c2 -48 -18 -50 -61 -50c-51 0 -31 62 -35 105h-58c-1 -55 -26 -90 -74 -105c-8 -3 -14 8 -5 10c44 12 67 44 68 95h-68
c-7 0 -7 10 0 10zM119 190c0 7 -8 16 -4 22c12 0 10 -12 15 -22h90c35 2 26 -37 16 -56c-28 -11 22 45 -17 45h-187c-20 3 2 -33 -13 -40c-7 8 -14 51 11 51h89z" /><glyph glyph-name="uni5B9A" unicode="&#x5B9A;" d="M207 126h-72v-53h91c6 0 9 -11 1 -11h-92v-62c29 -8 65 -14 107 -14c10 0 10 -10 0 -10c-110 2 -172 28 -186 81c-5 -31 -15 -57 -30 -80c-3 -7 -15 -2 -9 6c23 33 33 75 34 123c-2 8 12 7 12 0c-8 -52 19 -88 62 -103v123h-74c-9 0 -9 10 0 10h156c6 0 6 -10 0 -10z
M134 188h89c32 0 18 -36 12 -55c-3 -8 -13 -5 -10 4c3 10 18 40 -3 40h-185c-20 -2 3 -40 -14 -48c-7 11 -14 58 12 59h88c0 10 -9 18 -3 25c12 -3 6 -5 14 -25z" /><glyph glyph-name="uni5BA2" unicode="&#x5BA2;" d="M82 165h107c17 -1 22 -9 15 -23c-9 -16 -28 -31 -56 -47c23 -9 57 -18 101 -27c5 0 6 -12 0 -11c-40 7 -78 17 -115 32c-45 -15 -84 -26 -117 -31c-8 -3 -10 10 -2 11c33 5 69 13 108 26c-25 16 -43 31 -52 45c-6 -11 -14 -24 -25 -37c-3 -4 -6 -5 -9 -3s-2 5 1 9
c15 18 27 38 34 59c1 7 13 4 10 -3zM59 54h146c29 2 19 -38 19 -62c0 -11 -7 -17 -18 -17h-150c-25 0 -15 38 -17 61c-1 13 5 18 20 18zM64 44c-25 3 -12 -25 -15 -44c-1 -11 3 -15 12 -15h137c23 -2 15 26 15 45c0 9 -3 14 -10 14h-139zM131 193c51 -6 143 25 107 -53
c-3 -7 -14 -3 -10 4c11 25 8 39 -7 39h-183c-22 3 -3 -35 -18 -42c-10 4 -5 24 -5 36c0 10 8 16 23 16h82c-1 8 -9 12 -4 18c9 1 12 -10 15 -18zM195 152c-33 7 -79 1 -117 3l-2 -4c13 -19 33 -36 60 -51c22 12 48 26 59 52z" /><glyph glyph-name="uni5BAB" unicode="&#x5BAB;" d="M59 153h137c27 2 19 -29 20 -52c1 -13 -5 -18 -18 -18h-138c-28 -4 -18 30 -20 54c-1 11 6 16 19 16zM54 44c-23 3 -11 -24 -14 -43c-1 -9 4 -14 13 -14h149c22 -3 13 23 15 41c1 11 -4 16 -14 16h-149zM132 189c53 -4 142 21 106 -55c-3 -7 -13 -4 -10 4
c11 27 8 41 -8 41h-187c-24 3 -4 -33 -18 -44c-10 4 -5 26 -5 38c0 10 8 16 23 16h88c-4 3 -11 35 5 19c0 1 4 -12 6 -19zM190 93c21 -5 14 19 15 37c0 9 -4 13 -13 13h-128c-20 2 -12 -18 -14 -34c-1 -11 3 -16 12 -16h128zM205 54c33 4 22 -32 22 -59
c0 -12 -6 -18 -18 -18h-158c-31 -4 -20 31 -22 57c-1 14 5 20 16 20h160z" /><glyph glyph-name="uni5BB6" unicode="&#x5BB6;" d="M133 189c35 -6 98 15 105 -18c-2 -14 -6 -35 -18 -37c-4 16 22 38 -3 45h-174c-26 3 -1 -36 -17 -48c-7 10 -13 57 11 58h85c-1 7 -10 15 -5 21c12 2 11 -13 16 -21zM203 145c-26 -2 -61 7 -74 -11c11 -13 20 -29 29 -50c23 10 43 23 58 38c11 6 12 -10 1 -13
c-11 -9 -20 -16 -29 -21c11 -40 27 -69 50 -88c6 -4 0 -15 -7 -9c-24 22 -42 52 -51 92c-15 -8 -24 -6 -16 -26c9 -67 -20 -109 -86 -79c-6 3 -6 13 4 9c56 -26 78 13 71 67c-41 -35 -84 -60 -130 -73c-8 -2 -9 10 -1 10c42 11 85 37 129 77c-1 7 -4 16 -9 26
c-37 -29 -75 -51 -114 -66c-9 -4 -11 8 -3 10c45 18 82 40 112 67c-5 9 -11 16 -16 22c-30 -21 -61 -36 -93 -47c-5 -3 -9 7 -3 9c43 17 78 36 103 56h-78c-7 -1 -6 11 0 11h153c5 -5 5 -8 0 -11z" /><glyph glyph-name="uni5BBD" unicode="&#x5BBD;" d="M56 117h133c14 0 21 -7 21 -20v-79c0 -8 -10 -10 -10 -1v80c-1 7 -4 10 -11 10h-133c-7 0 -10 -3 -10 -9v-76c0 -7 -10 -7 -10 0v76c-1 13 6 19 20 19zM126 93c3 -66 -34 -106 -111 -121c-10 -2 -13 9 -2 11c70 10 104 48 103 110c0 7 10 7 10 0zM246 35
c-7 -52 6 -65 -38 -65c-33 0 -84 -9 -72 27v72c0 9 10 9 10 0v-72c-7 -25 40 -13 63 -16c31 3 20 13 26 54c-1 6 11 5 11 0zM121 196c-12 17 12 27 10 0c46 -9 137 28 104 -44c-1 -8 -13 -5 -10 4c8 21 6 31 -4 29h-192c-13 -3 3 -30 -10 -35c-7 6 -12 46 10 46h92zM76 175
c6 13 13 -4 10 -14h80c-2 10 2 27 11 14v-14c14 -2 36 5 42 -5c-6 -10 -29 -3 -42 -5c3 -13 -4 -42 -11 -19v19h-80c3 -11 -3 -38 -10 -19v19c-14 2 -37 -5 -43 5c6 10 29 3 43 5v14z" /><glyph glyph-name="uni5BBF" unicode="&#x5BBF;" d="M62 158c-14 -51 -11 -119 -11 -184c0 -6 -10 -6 -10 0v109c-8 -16 -16 -28 -24 -37c-6 -5 -12 4 -6 8c25 30 38 65 41 104c-1 7 11 7 10 0zM83 151h141c6 0 6 -10 0 -10h-59c-5 -14 -10 -26 -16 -37h66c11 1 16 -5 16 -16v-101c-1 -9 -7 -15 -18 -15h-117
c-10 0 -14 6 -14 17v98c-3 25 34 15 56 17c5 8 10 20 17 37h-72c-7 0 -7 10 0 10zM221 45c-2 17 6 46 -8 50h-112c-17 -2 -6 -34 -9 -50h129zM212 -18c17 4 6 35 9 53h-129c4 -18 -10 -53 10 -53h110zM126 188c0 5 -11 16 -4 21c10 0 12 -14 15 -21c51 -5 143 23 106 -53
c-3 -7 -14 -4 -10 4c11 25 9 39 -6 39h-186c-23 3 -2 -35 -18 -43c-7 9 -13 54 11 53h92z" /><glyph glyph-name="uni5BCC" unicode="&#x5BCC;" d="M44 164h170c5 0 5 -10 0 -10h-170c-5 3 -5 7 0 10zM54 135h149c19 2 22 -52 -1 -52h-147c-23 -4 -15 20 -16 39c-1 9 4 13 15 13zM57 125c-11 1 -6 -14 -7 -24c-1 -6 2 -8 8 -8h142c10 -2 11 30 0 32h-143zM41 65h180c9 0 14 -5 13 -15c-4 -27 14 -76 -19 -76h-172
c-34 -2 -14 48 -19 76c-2 10 5 15 17 15zM43 55c-14 1 -7 -19 -9 -31h90v31h-81zM217 55h-83v-31h90c-2 11 5 31 -7 31zM34 14c2 -13 -6 -30 10 -30h80v30h-90zM134 -16h84c11 1 4 20 6 30h-90v-30zM133 194c49 -3 146 19 107 -53c-28 -15 18 44 -18 43h-191
c-13 -1 -5 -23 -7 -35c-14 -13 -10 18 -10 28c-1 11 5 17 17 17h92c-1 4 -12 14 -4 19c9 2 12 -12 14 -19z" /><glyph glyph-name="uni5BE8" unicode="&#x5BE8;" d="M97 -27c-17 21 40 -5 26 16v51h-52c-8 0 -5 10 1 10h51c-1 9 -2 33 10 21v-21c19 -2 49 5 60 -5c0 -3 -2 -5 -5 -5h-55c-4 -37 17 -86 -36 -67zM132 195c47 -8 134 24 109 -42c-5 -5 -8 -4 -11 3c7 22 2 30 -13 30h-187c-18 2 1 -28 -13 -34c-6 8 -11 43 12 43h92
c-4 9 -7 12 0 17c9 0 8 -6 11 -17zM80 171c9 12 12 -5 10 -14h76c-2 10 0 28 10 16v-16c15 -2 38 4 46 -4c0 -3 -1 -5 -3 -5h-43v-23h46c5 0 6 -9 0 -9h-46v-23h61c5 0 9 -8 2 -9h-59c18 -21 41 -37 68 -50c5 -3 4 -13 -4 -9c-28 13 -53 32 -76 59h-76
c-15 -26 -41 -45 -78 -56c-6 -4 -11 9 -3 9c33 10 56 26 70 47h-65c-7 0 -4 9 1 9h63v23h-47c-6 0 -5 9 0 9h47v23h-49c-5 2 -5 5 0 9h49v14zM166 116h-76v-23h76v23zM166 148h-76v-23h76v23zM88 23c-15 -17 -31 -32 -48 -44c-7 -6 -11 5 -5 8c15 9 31 23 46 43
c4 5 12 -2 7 -7zM173 30c14 -13 29 -27 44 -43c7 -6 -2 -13 -7 -7c-13 16 -28 31 -43 44c-7 3 2 9 6 6z" /><glyph glyph-name="uni5BF8" unicode="&#x5BF8;" d="M184 209c10 -6 3 -30 5 -44h45c5 0 6 -12 0 -11h-45v-144c-1 -38 -36 -44 -104 -22c-7 2 -6 13 2 10c61 -20 92 -17 92 10v146h-163c-10 -1 -9 11 0 11h163c2 14 -5 38 5 44zM68 126c21 -35 34 -65 41 -89c3 -7 -8 -13 -10 -4c-8 34 -25 59 -39 86c-7 7 3 15 8 7z" /><glyph glyph-name="uni5BF9" unicode="&#x5BF9;" d="M19 200c32 -5 88 15 88 -22c-1 -55 -9 -97 -23 -126c11 -21 21 -40 29 -57c4 -8 -7 -14 -11 -5c-5 12 -13 28 -24 50c-11 -19 -31 -42 -62 -69c-6 -6 -14 3 -8 8c30 24 51 49 64 72c-16 32 -35 69 -58 112c-5 9 7 11 10 4c19 -35 37 -69 53 -102c12 27 19 64 20 110
c0 10 -4 15 -13 15c-23 2 -55 -5 -72 4c0 3 2 5 7 6zM133 132c22 -38 38 -69 48 -92c4 -8 -7 -13 -10 -5c-12 30 -28 60 -47 91c-5 5 6 12 9 6zM214 213c11 -10 2 -38 5 -56c11 -2 30 5 32 -6c-3 -10 -21 -3 -32 -5v-146c-1 -32 -25 -39 -74 -22c-5 2 -8 5 -7 9c1 3 4 4 9 2
c41 -17 62 -13 62 12v145h-90c-8 -1 -7 11 0 11h90c3 18 -6 46 5 56z" /><glyph glyph-name="uni5BFA" unicode="&#x5BFA;" d="M120 211c14 13 10 -18 10 -29h98c7 0 8 -12 0 -11h-98v-49h115c5 0 6 -12 0 -11h-47v-35c17 -2 43 5 52 -5c0 -3 -2 -5 -5 -5h-47c-1 -43 10 -99 -37 -95c-35 2 -59 6 -73 10c-10 3 -8 13 3 10c28 -7 87 -21 97 9v66h-176c-8 0 -8 10 0 10h175v35h-176c-8 -1 -8 11 0 11
h109v49h-94c-9 -1 -9 11 -1 11h95v29zM67 56c18 -21 30 -38 36 -50c2 -6 -6 -8 -10 -5c-15 23 -26 38 -33 46c-7 4 2 15 7 9z" /><glyph glyph-name="uni5BFC" unicode="&#x5BFC;" d="M45 210h160c22 2 24 -61 0 -60h-168c3 -20 -10 -45 17 -45h158c12 0 22 13 22 38c0 8 12 4 10 -2c-4 -35 -13 -49 -39 -46v-34c14 -2 39 5 45 -5c-6 -10 -31 -3 -45 -5c4 -64 2 -104 -77 -72c-5 2 -7 5 -6 8s3 4 8 3c41 -17 65 -16 65 5v56h-136c11 -15 21 -32 30 -51
c2 -3 -10 -9 -10 -3c-5 12 -12 25 -22 39c-6 9 -8 14 -4 15h-41c-8 0 -8 10 0 10h183v34h-140c-48 -4 -28 59 -28 97c0 11 6 18 18 18zM44 200c-13 -3 -4 -27 -7 -40h168c10 2 9 35 0 40h-161z" /><glyph glyph-name="uni5C04" unicode="&#x5C04;" d="M67 189c19 -3 52 8 52 -12v-184c-3 -21 -20 -27 -51 -16c-8 3 -5 14 4 10c49 -24 33 31 36 65c-23 -30 -53 -54 -90 -72c-6 -4 -13 5 -6 8c35 19 64 41 86 66h-83c-14 3 0 14 9 10v112c-1 16 16 13 31 13c8 4 8 24 20 24c7 -9 -4 -13 -8 -24zM102 179h-60
c-13 -1 -6 -19 -8 -31h74c-2 10 5 31 -6 31zM34 137v-31h74v31h-74zM34 96v-32h74v32h-74zM212 205c17 10 7 -29 10 -42c11 1 34 1 21 -11h-21v-144c4 -36 -20 -44 -74 -26c-7 2 -5 12 2 9c46 -16 62 -10 62 18v143h-81c-7 -1 -6 11 0 11h81v42zM173 36c-1 18 -10 50 -21 85
c-5 8 7 10 9 4c9 -21 16 -49 22 -86c2 -5 -10 -11 -10 -3z" /><glyph glyph-name="uni5C06" unicode="&#x5C06;" d="M60 207v-231c0 -8 -12 -8 -11 0v78c-15 -17 -27 -29 -37 -37c-9 -8 -14 3 -7 9c12 9 27 25 44 46v135c-1 8 11 8 11 0zM13 191c11 -22 18 -48 22 -78c1 -11 -10 -14 -11 -2c-3 25 -10 50 -20 75c-4 9 5 11 9 5zM211 122c12 -3 4 -26 6 -38c10 -2 30 5 31 -6
c-4 -8 -21 -2 -31 -4v-69c3 -35 -24 -45 -79 -28c-10 2 -9 17 3 12c84 -33 63 25 65 85h-125c-8 0 -8 10 0 10h125c2 12 -5 33 5 38zM105 65c20 -8 42 -23 65 -44c7 -7 -1 -17 -8 -10c-22 23 -43 37 -61 44c-12 2 -5 14 4 10zM225 191c-22 7 -56 1 -83 3
c-15 -17 -26 -28 -34 -33c16 -9 35 -20 58 -34c28 14 51 33 59 64zM151 204c27 -2 67 5 86 -5c2 -3 2 -7 -1 -14c-23 -53 -75 -85 -154 -94c-10 -2 -10 10 -1 11c27 3 52 10 73 19c-21 13 -39 24 -55 32c-6 -4 -14 -14 -23 -9c-1 3 0 6 3 9c25 16 46 35 63 58
c3 8 14 -1 9 -7z" /><glyph glyph-name="uni5C0F" unicode="&#x5C0F;" d="M138 202v-202c-1 -36 -46 -24 -74 -16c-8 1 -5 13 4 10c41 -13 60 -10 60 5v203c0 8 10 8 10 0zM59 162c-9 -61 -23 -106 -42 -133c-3 -7 -14 -4 -9 4c18 27 32 70 41 131c1 8 13 5 10 -2zM211 165c18 -54 31 -100 40 -138c3 -7 -8 -12 -10 -3c-10 46 -24 91 -39 136
c-4 6 7 11 9 5z" /><glyph glyph-name="uni5C31" unicode="&#x5C31;" d="M84 183h52c5 0 5 -10 0 -10h-117c-7 0 -7 10 0 10h54c1 11 -11 21 -3 26c12 0 10 -15 14 -26zM177 210c11 -9 2 -38 5 -55h60c6 0 6 -10 0 -10h-60c-3 -65 -18 -122 -50 -168c-4 -6 -14 -1 -9 7c31 47 46 101 48 161c-12 0 -50 -4 -32 10h33v50c0 3 2 4 5 5zM201 204
c18 -18 37 -25 35 -44c-2 -2 -4 -2 -6 1c-9 11 -20 23 -35 36c-6 2 2 11 6 7zM40 150h73c28 5 15 -32 18 -55c3 -25 -27 -15 -48 -17c-6 -45 23 -130 -44 -101c-8 1 -6 14 2 11c21 -8 31 -6 31 6v84c-21 2 -54 -9 -49 17c3 22 -11 55 17 55zM40 140c-14 -4 -4 -30 -7 -45
c-1 -5 2 -7 7 -7h73c14 4 4 31 7 45c0 5 -2 7 -7 7h-73zM200 134v-137c2 -17 41 -16 35 11c1 13 -5 50 11 34c0 -35 5 -74 -38 -66c-12 2 -18 8 -18 22v136c0 5 10 5 10 0zM48 58c-5 -29 -14 -52 -26 -71c-5 -6 -14 2 -8 8c12 19 20 41 24 66c1 7 11 4 10 -3zM114 61
c7 -22 11 -39 14 -52c3 -10 -9 -12 -10 -3c-3 15 -7 32 -14 50c-5 5 7 11 10 5z" /><glyph glyph-name="uni5C3A" unicode="&#x5C3A;" d="M210 206c36 4 16 -57 21 -88c-1 -11 -6 -17 -17 -17h-75c27 -50 65 -89 112 -116c6 -2 0 -13 -5 -10c-47 27 -87 69 -120 126h-78c2 -58 -7 -99 -27 -124c-4 -6 -16 -2 -9 6c36 38 21 116 25 202c0 14 7 21 21 21h152zM48 183v-72h157c28 -4 12 47 16 72
c1 9 -4 13 -14 13h-149c-7 0 -10 -4 -10 -13z" /><glyph glyph-name="uni5C3D" unicode="&#x5C3D;" d="M223 209c23 -2 14 -36 15 -58c1 -24 -32 -14 -53 -16c10 -37 33 -71 68 -101c4 -2 -2 -15 -8 -9c-32 26 -56 63 -71 110h-128c0 -51 -11 -89 -29 -114c-5 -7 -16 -2 -9 6c29 30 28 102 27 165c0 11 7 17 21 17h167zM57 198c-22 1 -7 -35 -11 -53h173c15 1 8 30 8 44
c0 6 -3 9 -9 9h-161zM87 113c30 -15 62 -38 96 -67c5 -7 -1 -14 -7 -8c-25 26 -57 47 -93 66c-8 2 -2 12 4 9zM216 -34c-59 19 -115 30 -169 33c-12 0 -11 9 0 9c61 -3 118 -15 172 -33c6 -2 1 -11 -3 -9z" /><glyph glyph-name="uni5C42" unicode="&#x5C42;" d="M223 202c26 1 17 -25 17 -46c0 -9 -6 -13 -17 -13h-181c2 -67 -2 -124 -25 -170c-2 -7 -15 -3 -10 4c25 45 25 133 24 210c1 9 7 15 19 15h173zM223 101h-161c-9 0 -7 10 1 10h161c7 0 6 -11 -1 -10zM244 54h-121c-12 -22 -31 -44 -57 -66c50 1 115 2 157 7
c-5 8 -19 23 -28 36c-7 5 1 14 7 7c19 -21 33 -41 44 -60c1 -18 -15 2 -16 8c-49 -5 -105 -7 -168 -7c-13 0 -15 7 -5 14c22 16 40 37 55 61h-62c-7 0 -7 10 0 10h195c5 0 5 -11 -1 -10zM221 192h-169c-18 -1 -7 -24 -10 -39h178c14 -2 7 19 9 31c0 5 -3 8 -8 8z" /><glyph glyph-name="uni5C45" unicode="&#x5C45;" d="M213 202c20 -1 17 -22 17 -42c0 -9 -4 -13 -13 -13h-179c1 -64 -6 -127 -21 -149c-2 -5 -12 -1 -9 3c20 36 21 117 20 184c-1 11 6 17 19 17h166zM46 191c-15 0 -5 -22 -8 -34h175c12 0 5 18 7 28c0 4 -2 6 -5 6h-169zM144 143c11 -2 4 -21 6 -32h87c6 0 9 -10 1 -10h-88
v-35c29 -4 76 13 73 -22c-3 -26 14 -69 -20 -69h-121c-35 -1 -14 47 -20 75c2 26 51 12 77 16v35h-91c-7 0 -7 10 0 10h91c2 11 -5 29 5 32zM73 46v-53c-1 -5 2 -7 11 -7h119c6 0 9 2 9 6v53c1 7 -2 10 -9 10h-120c-7 0 -10 -3 -10 -9z" /><glyph glyph-name="uni5C48" unicode="&#x5C48;" d="M219 206c23 2 16 -26 16 -45c0 -9 -6 -13 -15 -13h-181c1 -66 -5 -128 -21 -156c-3 -6 -14 -3 -10 4c25 46 21 116 21 193c0 12 5 17 20 17h170zM157 135v-64h61c5 -1 8 2 8 9v45c0 6 10 4 10 -1c-4 -23 11 -63 -17 -63h-62v-70h67c18 6 -3 48 12 60c10 -8 3 -35 5 -51
c1 -14 -5 -19 -18 -19h-142c-34 -4 -14 40 -19 66c-1 8 11 7 11 0v-47c-1 -6 2 -9 9 -9h64v70c-27 5 -79 -14 -79 18c0 15 -7 57 11 45v-43c-1 -7 2 -10 9 -10h59v64c-1 6 11 5 11 0zM39 159h178c12 -2 13 34 0 37h-169c-15 0 -7 -24 -9 -37z" /><glyph glyph-name="uni5C4B" unicode="&#x5C4B;" d="M43 206h176c24 5 29 -54 -1 -54h-183v-24h205c7 0 7 -10 0 -10h-118c-12 -13 -31 -27 -56 -42c63 -1 111 0 144 2c-9 7 -18 15 -29 24c-7 3 -1 14 7 8c18 -14 37 -31 56 -51c6 -25 -23 5 -25 11c-31 -2 -54 -3 -69 -3v-32h78c5 0 5 -10 0 -10h-78v-37h91c6 1 5 -11 0 -11
h-197c-7 0 -8 12 0 11h95v37h-84c-7 0 -7 10 0 10h84v32c-16 -1 -43 -2 -81 -1c-12 0 -11 9 -3 14c21 12 39 25 53 38h-73c1 -53 -5 -99 -20 -127c-3 -4 -12 2 -9 6c24 45 19 124 19 194c0 10 6 15 18 15zM42 196c-14 0 -4 -22 -7 -34h182c14 -4 13 34 1 34h-176z" /><glyph glyph-name="uni5C71" unicode="&#x5C71;" d="M131 208v-219h79c10 -1 13 4 13 15v176c0 6 10 6 10 0v-177c1 -17 -5 -24 -18 -24h-175c-14 1 -21 8 -21 21v182c-1 8 11 8 11 0v-177c-2 -11 3 -16 16 -16h74v219c-1 6 11 5 11 0z" /><glyph glyph-name="uni5D1B" unicode="&#x5D1B;" d="M56 208v-210c7 0 20 -1 21 4v179c0 6 10 4 10 -1v-171c4 -30 -33 -21 -58 -21c-9 0 -14 5 -14 13v183c0 6 10 6 10 0v-181c-2 -6 14 -5 21 -5v209c-1 6 10 6 10 1zM219 205c23 5 26 -52 2 -51h-104c1 -67 2 -142 -24 -178c-4 -6 -16 -3 -9 5c30 38 22 132 23 203
c-1 14 6 21 19 21h93zM217 194h-94c-11 -1 -4 -20 -6 -30h102c10 -1 12 31 -2 30zM190 143v-64c13 3 33 -7 33 8v45c0 6 10 4 10 -1c-4 -23 11 -65 -18 -62h-25v-85c13 2 35 -4 41 4v62c0 5 10 5 10 0c-5 -25 12 -76 -14 -76h-81c-33 0 -16 46 -20 74c-1 6 11 7 11 1v-57
c0 -14 28 -6 42 -8v85c-17 2 -45 -6 -45 13v47c-1 6 11 5 11 0v-42c0 -15 22 -5 34 -8v63c3 5 6 6 11 1z" /><glyph glyph-name="uni5DDD" unicode="&#x5DDD;" d="M229 199v-221c0 -7 -10 -7 -10 0v221c0 7 10 7 10 0zM41 207c11 -12 5 -44 5 -65c0 -71 -9 -123 -24 -154c-3 -8 -18 -4 -11 5c23 34 27 131 25 208c0 3 2 5 5 6zM136 194v-195c0 -7 -10 -7 -10 0v195c0 7 10 7 10 0z" /><glyph glyph-name="uni5DDE" unicode="&#x5DDE;" d="M71 203c-1 -87 11 -199 -45 -227c-8 -5 -13 5 -6 9c55 30 39 134 41 218c0 7 10 7 10 0zM233 201v-223c0 -8 -12 -8 -11 0v223c-1 8 11 7 11 0zM150 199v-205c0 -7 -12 -8 -11 0v205c-1 8 11 7 11 0zM99 159c9 -32 17 -70 22 -115c1 -9 -9 -12 -10 -3
c-5 40 -11 79 -22 115c-2 7 7 10 10 3zM171 160c14 -30 27 -68 39 -115c3 -8 -9 -15 -11 -5c-8 38 -21 77 -38 116c-3 7 7 10 10 4zM42 157c-3 -37 -11 -74 -23 -111c-3 -8 -14 -5 -10 4c11 34 23 70 23 109c0 7 11 4 10 -2z" /><glyph glyph-name="uni5DE5" unicode="&#x5DE5;" d="M24 196h206c6 0 6 -10 0 -10h-97v-192h109c6 0 6 -10 0 -10h-225c-7 0 -7 10 0 10h105v192h-98c-7 0 -7 10 0 10z" /><glyph glyph-name="uni5DE6" unicode="&#x5DE6;" d="M122 178h120c8 0 8 -10 1 -10h-125c-13 -26 -25 -48 -38 -66h150c8 0 8 -10 1 -10h-76v-103h91c6 1 6 -10 1 -10h-198c-7 0 -7 10 0 10h96v103h-72c-21 -25 -38 -43 -53 -54c-7 -6 -15 2 -8 7c40 33 71 74 93 123h-87c-9 0 -9 10 0 10h91c3 7 6 17 9 30
c18 14 7 -20 4 -30z" /></font>
</defs>
</svg>
